
<svg class="animated" id="freepik_stories-marketing" xmlns="http://www.w3.org/2000/svg" viewBox="0 0 500 500" version="1.1" xmlns:xlink="http://www.w3.org/1999/xlink" xmlns:svgjs="http://svgjs.com/svgjs"><g id="freepik--Shadow--inject-1" class="animable" style="transform-origin: 250px 415.69px;"><ellipse id="freepik--path--inject-1" cx="250" cy="415.69" rx="193.89" ry="11.32" style="fill: rgb(245, 245, 245); transform-origin: 250px 415.69px;" class="animable"></ellipse></g><g id="freepik--Podium--inject-1" class="animable" style="transform-origin: 252.555px 324.185px;"><rect x="137.44" y="323.73" width="230.23" height="75.92" style="fill: rgb(255, 22, 148); transform-origin: 252.555px 361.69px;" id="elwemsi3phgzg" class="animable"></rect><g id="elk0b4agmrrm"><rect x="137.44" y="323.74" width="230.23" height="75.91" style="fill: rgb(255, 255, 255); opacity: 0.2; transform-origin: 252.555px 361.695px;" class="animable"></rect></g><rect x="199.7" y="248.72" width="99.93" height="75.92" style="fill: rgb(255, 22, 148); transform-origin: 249.665px 286.68px;" id="elfk6m8pcdw3n" class="animable"></rect><g id="eltspknftmv37"><rect x="199.7" y="248.72" width="99.93" height="75.92" style="fill: rgb(255, 255, 255); opacity: 0.2; transform-origin: 249.665px 286.68px;" class="animable"></rect></g><path d="M258.92,270.27l-5.65,28.27h-6.55l4.61-23h-5.66l1.05-5.25Z" style="fill: rgb(38, 50, 56); transform-origin: 252.295px 284.405px;" id="elhprzlvz9l8" class="animable"></path></g><g id="freepik--character-2--inject-1" class="animable" style="transform-origin: 357.66px 293.515px;"><polygon points="310.99 221.06 314.88 225.18 342.45 206.83 373.58 217.13 400.67 197.12 402.49 200.38 409.81 188.07 395.5 187.88 397.32 191.13 373.12 212.2 341.92 202.13 310.99 221.06" style="fill: rgb(38, 50, 56); transform-origin: 360.4px 206.53px;" id="elgfs976zi1hl" class="animable"></polygon><g id="elie19bqay9vl"><path d="M327.47,331.55l20.95-.76c-4.94-1.42-10.16-1.34-15.28-1.87a16.44,16.44,0,0,1-4.34-.9c-1.32-.51-2.51-1.32-3.82-1.86a10.38,10.38,0,0,0-5.43-.68,5,5,0,0,0-1.7.5,4.72,4.72,0,0,0-2.11,2.63,10.33,10.33,0,0,0-.56,2.94h0c0,.14,0,.29,0,.44h0a16.37,16.37,0,0,0,1.38,6.38c4.86,11.77,44.23,1.72,44.23,1.72-1.38,7.72.68,13.54,2.09,21.27l3.69,20.36-3.94.43,1.59,5.7h3.47v-56.3Z" style="opacity: 0.2; transform-origin: 341.435px 356.613px;" class="animable"></path></g><g id="elyy6ndk5zwm"><path d="M367.93,392.77v6.38l-.16-.19-.86-4.48a1.21,1.21,0,0,1,0-.19A1.63,1.63,0,0,1,367.93,392.77Z" style="opacity: 0.2; transform-origin: 367.418px 395.96px;" class="animable"></path></g><g id="freepik--Character--inject-2--inject-1" class="animable" style="transform-origin: 354.551px 312.531px;"><polygon points="386.34 388.07 392.51 387.4 393.11 372.91 386.93 373.58 386.34 388.07" style="fill: rgb(255, 139, 123); transform-origin: 389.725px 380.49px;" id="elu8h5lbs6je" class="animable"></polygon><path d="M393.14,384.8l-7-.08a.44.44,0,0,0-.48.39.09.09,0,0,0,0,.05l-.4,5.5a1.12,1.12,0,0,0,1.08,1.12c2.42,0,3.44-.14,6.49-.32,1.89-.12,6.38-.42,8.94-.9s2-3,.88-3c-2.67-.05-6.76-.93-8.49-2.33A1.76,1.76,0,0,0,393.14,384.8Z" style="fill: rgb(38, 50, 56); transform-origin: 394.426px 388.249px;" id="el0ekcq50jgxv8" class="animable"></path><g id="eltpxir55jon"><polygon points="386.93 373.59 393.11 372.91 392.82 379.89 386.65 380.35 386.93 373.59" style="opacity: 0.2; isolation: isolate; transform-origin: 389.88px 376.63px;" class="animable"></polygon></g><path d="M343,309.62s47-2.32,50.11,15.19a332.62,332.62,0,0,1,.89,49.51L385.28,376s-6.8-30.38-6.1-45.31c-12.95-1.42-48.21,4.86-53.71-4.79-4.49-7.87-3.65-12.76-3.65-12.76Z" style="fill: rgb(38, 50, 56); transform-origin: 358.145px 342.759px;" id="elew5x9r5ulsn" class="animable"></path><polygon points="382.49 378.82 395.71 378.2 396.62 373.24 381.97 373.74 382.49 378.82" style="fill: rgb(255, 22, 148); transform-origin: 389.295px 376.03px;" id="el73kao6jr85b" class="animable"></polygon><path d="M396.49,385.59a.8.8,0,0,0,.19-.78.54.54,0,0,0-.34-.41c-.76-.32-2.52.87-2.71,1a.13.13,0,0,0-.07.09.14.14,0,0,0,.11.17,7.64,7.64,0,0,0,1.65.24A1.7,1.7,0,0,0,396.49,385.59Zm-.24-.93a.24.24,0,0,1,.14.21.5.5,0,0,1-.1.51c-.3.29-1.11.32-2.22.08C394.79,385,395.83,384.5,396.25,384.66Z" style="fill: rgb(255, 22, 148); transform-origin: 395.134px 385.127px;" id="el99s5bhm9jye" class="animable"></path><path d="M393.8,385.63c.62-.36,1.56-1.64,1.42-2.32a.54.54,0,0,0-.51-.44.74.74,0,0,0-.64.21c-.63.6-.52,2.38-.51,2.46a.14.14,0,0,0,.08.12h.07Zm.82-2.47c.22,0,.26.12.28.21.09.44-.53,1.41-1.08,1.86a3.21,3.21,0,0,1,.43-2,.41.41,0,0,1,.32-.12Z" style="fill: rgb(255, 22, 148); transform-origin: 394.39px 384.261px;" id="elt0j7deqt3ho" class="animable"></path><g id="elasyopmbrkr"><path d="M373.36,319.72s9.81-2.81,11.92,3.1S384.92,357.55,382,364s-8.29-43.26-8.29-43.26Z" style="opacity: 0.3; isolation: isolate; transform-origin: 379.715px 341.815px;" class="animable"></path></g><polygon points="373.54 392.77 379.53 392.61 379.07 378.07 373.08 378.22 373.54 392.77" style="fill: rgb(255, 139, 123); transform-origin: 376.305px 385.42px;" id="elq56a6rlroq" class="animable"></polygon><path d="M379.63,390.82l-6.95.44a.46.46,0,0,0-.44.46l0,5.51a1.1,1.1,0,0,0,1.16,1c2.41-.23,3.56-.42,6.62-.64a56.15,56.15,0,0,0,8.13-.78c2.53-.58,1.9-3.06.78-3.05a17,17,0,0,1-8.24-2.71A1.72,1.72,0,0,0,379.63,390.82Z" style="fill: rgb(38, 50, 56); transform-origin: 381.075px 394.521px;" id="elnduj0nrrjqf" class="animable"></path><path d="M383,391.35a.78.78,0,0,0,.13-.79.56.56,0,0,0-.36-.39c-.78-.26-2.45,1.07-2.64,1.22a.19.19,0,0,0-.05.09.14.14,0,0,0,.12.16,7.1,7.1,0,0,0,1.66.11A1.58,1.58,0,0,0,383,391.35Zm-.32-.9a.27.27,0,0,1,.18.19.53.53,0,0,1-.07.52c-.25.31-1.09.39-2.21.25C381.3,390.9,382.3,390.32,382.71,390.45Z" style="fill: rgb(255, 22, 148); transform-origin: 381.631px 390.948px;" id="eldhj5d6d2ggl" class="animable"></path><path d="M380.37,391.63c.59-.41,1.43-1.79,1.24-2.42a.54.54,0,0,0-.55-.4.73.73,0,0,0-.63.24c-.58.64-.32,2.41-.32,2.49a.14.14,0,0,0,.09.11h.06A.14.14,0,0,0,380.37,391.63Zm.64-2.56c.21,0,.28.11.29.19.13.44-.43,1.45-.94,1.94a3.12,3.12,0,0,1,.29-2,.41.41,0,0,1,.29-.15Z" style="fill: rgb(255, 22, 148); transform-origin: 380.845px 390.229px;" id="ely9nxhnudhk9" class="animable"></path><g id="elc9pw9pouxy"><polygon points="372.54 378.09 379.24 376.96 379.3 386.05 373.42 386.73 372.54 378.09" style="opacity: 0.2; isolation: isolate; transform-origin: 375.92px 381.845px;" class="animable"></polygon></g><path d="M333.78,311s46.41,3.46,47,17c3.42,22,.84,51,.84,51l-11.12,2.32s-5.71-27.15-6.53-47.11c-11.36,1.91-34.73,5.43-42.74-.25C314,327.43,316,314,316,314Z" style="fill: rgb(38, 50, 56); transform-origin: 349.15px 346.16px;" id="elp5j6uzit5gq" class="animable"></path><polygon points="369.45 384.99 383.04 383.84 383.32 377.9 368.43 379.44 369.45 384.99" style="fill: rgb(255, 22, 148); transform-origin: 375.875px 381.445px;" id="elo9hc1sl1och" class="animable"></polygon><path d="M337,270.68c.26,1.06.5,2,.78,2.94s.57,1.87.89,2.84c.62,1.87,1.33,3.72,2.1,5.6A46.34,46.34,0,0,0,347,293a21.57,21.57,0,0,0,2.46,2.6,13.3,13.3,0,0,0,3.35,2.2,14.6,14.6,0,0,0,7.46,1.21,20.77,20.77,0,0,0,6.47-1.74,25.83,25.83,0,0,0,2.81-1.46,13.64,13.64,0,0,0,1.32-.87c.42-.33.82-.61,1.31-1l-2.4-4-1.19.36-1.25.34c-.85.21-1.68.4-2.54.54a18,18,0,0,1-4.69.24,7.64,7.64,0,0,1-3.53-1.15,7.15,7.15,0,0,1-1.27-1.06,16,16,0,0,1-1.31-1.64,29.31,29.31,0,0,1-2.41-4.26c-.76-1.54-1.43-3.16-2.07-4.83s-1.22-3.36-1.8-5.06l-.82-2.58c-.26-.85-.54-1.76-.75-2.5Z" style="fill: rgb(255, 139, 123); transform-origin: 354.59px 283.712px;" id="el5xxgy4fuxbr" class="animable"></path><path d="M336.13,265.48c3.74-5.08,9.72-3.45,13.3,4.34a76.72,76.72,0,0,1,4.78,12.89L340.49,288C336.6,280.68,332.28,270.7,336.13,265.48Z" style="fill: rgb(255, 22, 148); transform-origin: 344.419px 275.283px;" id="elhwt34nbj5zm" class="animable"></path><g id="el83ilswysufo"><path d="M336.13,265.48c3.74-5.08,9.72-3.45,13.3,4.34a76.72,76.72,0,0,1,4.78,12.89L340.49,288C336.6,280.68,332.28,270.7,336.13,265.48Z" style="opacity: 0.1; transform-origin: 344.419px 275.283px;" class="animable"></path></g><g id="els3hvmtuue7"><path d="M342.19,273.59c-1.17-.74-3.37,3.84-4.28,9.2.82,1.83,1.7,3.58,2.57,5.21l8.25-3.2C347.2,279.86,344.81,275.26,342.19,273.59Z" style="opacity: 0.3; isolation: isolate; transform-origin: 343.32px 280.756px;" class="animable"></path></g><path d="M370.4,287.88l3-1.75,1.28,6.75s-5,3.21-6.51.73l.1-1.75A5.55,5.55,0,0,1,370.4,287.88Z" style="fill: rgb(255, 139, 123); transform-origin: 371.425px 290.34px;" id="el8m226729oc6" class="animable"></path><polygon points="377.18 285.68 380.01 291.04 374.63 292.88 373.36 286.13 377.18 285.68" style="fill: rgb(255, 139, 123); transform-origin: 376.685px 289.28px;" id="elcasvsis2ow6" class="animable"></polygon><path d="M335.93,261.05l-7.14-.77L320,261.33a6.16,6.16,0,0,0-5.37,5.21,157.82,157.82,0,0,0-1.17,19.54c-.08,7.36,1.08,18.2,2.58,28l29.45-4.52c-.53-25.8,1.16-33.86,1.19-40.71a6.16,6.16,0,0,0-4.46-5.94Z" style="fill: rgb(255, 22, 148); transform-origin: 330.068px 287.18px;" id="elo1wiv763j1" class="animable"></path><path d="M335.93,261.05l-7.14-.77L320,261.33a6.16,6.16,0,0,0-5.37,5.21,157.82,157.82,0,0,0-1.17,19.54c-.08,7.36,1.08,18.2,2.58,28l29.45-4.52c-.53-25.8,1.16-33.86,1.19-40.71a6.16,6.16,0,0,0-4.46-5.94Z" style="fill: rgb(255, 22, 148); transform-origin: 330.068px 287.18px;" id="elyz7p8d9w86" class="animable"></path><g id="ele4x0531qdat"><path d="M317.4,264c5.87-1.22,6,12.18,3.63,22.06-.69,2.86-4.09,1.78-5.24,1.08C312,284.85,310.21,268.52,317.4,264Z" style="opacity: 0.3; isolation: isolate; transform-origin: 317.474px 275.929px;" class="animable"></path></g><path d="M317.32,283.86c.41,5.79-1.33,8.88,1.81,10.71s21.59,7.31,22,6.54c-.84,1.42-1.66,2.64-2.5,4.07q-7.92-.93-15.85-1.68c-3.86-.37-10.09-1.16-13.18-3.5-2.8-2.12-2.62-11.81-2.38-18.79C309.64,279.7,317.32,283.86,317.32,283.86Z" style="fill: rgb(255, 139, 123); transform-origin: 324.113px 293.03px;" id="ele78rhrfkcjl" class="animable"></path><path d="M315,261.72c6-2,8.45,2.81,6.87,11.2a75.23,75.23,0,0,1-3.56,13.28l-12.8-3.6C306.66,274.38,308.89,263.74,315,261.72Z" style="fill: rgb(255, 22, 148); transform-origin: 313.924px 273.734px;" id="elgcv4un7c9j" class="animable"></path><path d="M323.82,261.4a5.25,5.25,0,0,0,1,3.61,15.79,15.79,0,0,0,2.69,2.73c1.24,1.06,2.7,2.19,4.31,1.92s2.31-1,2.85-2.81c1.34,2,1.44,3,2.84,3.12a3.15,3.15,0,0,0,2.3-1.31,5.07,5.07,0,0,0,1.72-3.47c.25-2.61-1.94-5-4.42-5.79a30.8,30.8,0,0,0-7.77-1.29C327.07,257.92,324.2,258.73,323.82,261.4Z" style="fill: rgb(38, 50, 56); transform-origin: 332.673px 264.027px;" id="el3ypglxelpm7" class="animable"></path><path d="M329.63,248.72l3.32,3.61,4.53,4.9a5.39,5.39,0,0,0-.84,1.82,3.07,3.07,0,0,0,1.33,3.82c.68.29,1.12,3.76-3.27,3.54a9.13,9.13,0,0,1-6.71-2.8c-.84-1.06-1.07-1.63-.28-2.83C330,257.38,330,252.55,329.63,248.72Z" style="fill: rgb(255, 139, 123); transform-origin: 332.812px 257.57px;" id="elc23wea9gdcb" class="animable"></path><g id="elsnruvht9wb8"><path d="M336.39,256l-2.87-3.56c0,.11-.06.23-.1.35a10.54,10.54,0,0,0-.22,1.58c-.11,1.81,1.66,4.07,3.34,5l.12-.37a6.85,6.85,0,0,1,.76-1.73.2.2,0,0,1,.08-.08Z" style="opacity: 0.2; isolation: isolate; transform-origin: 335.348px 255.905px;" class="animable"></path></g><path d="M340.38,247.63c2.65-5.17,2.09-8.1,4.64-10.85,1.37-.61,3.77,1.92,2.17,6.22S340.38,247.63,340.38,247.63Z" style="fill: rgb(38, 50, 56); transform-origin: 344.05px 242.16px;" id="elpvlrs70h3za" class="animable"></path><path d="M329.71,241.89c-.31,6-.75,9.49,1.93,12.8,4,5,11.7,3,13.77-2.86,1.86-5.23,2-14.16-3.58-17.06a8.32,8.32,0,0,0-11.21,3.62A8.2,8.2,0,0,0,329.71,241.89Z" style="fill: rgb(255, 139, 123); transform-origin: 338.021px 245.692px;" id="el91t6oqfdp0a" class="animable"></path><path d="M329,247.22l4.89,1.93-1.23-5.25,2.66-1.52,3.25-4.86s-7-2.06-9.13-2.34c-.74-.1-3.31,1.9-3.69,2.74a6.88,6.88,0,0,0,1.13,7.16A15.31,15.31,0,0,0,329,247.22Z" style="fill: rgb(38, 50, 56); transform-origin: 331.891px 242.163px;" id="el1kr7cnli4fq" class="animable"></path><path d="M331.45,229.06c1.54-.75,3.41.19,5.05.69a41.9,41.9,0,0,0,4.92,1.42,6.2,6.2,0,0,0,4.31-.53,3.05,3.05,0,0,0,1.31-3.81,6.36,6.36,0,0,1,.88,10.46,8.62,8.62,0,0,1-5.33,1.71,25.54,25.54,0,0,1-5.63-.78c-2.47-.53-6-.61-8.3-1.74S326.75,231.33,331.45,229.06Z" style="fill: rgb(38, 50, 56); transform-origin: 338.776px 232.916px;" id="elcfj8dzd6uoe" class="animable"></path><path d="M326.77,246.2a5.5,5.5,0,0,0,1.82,3.45c1.32,1.12,2.84-.2,3-1.9.1-1.52-.73-3.71-2.29-4.18S326.57,244.54,326.77,246.2Z" style="fill: rgb(255, 139, 123); transform-origin: 329.173px 246.772px;" id="elnxpzzyaq53j" class="animable"></path><path d="M338.79,245.19c-.07.5.12.95.45,1s.6-.29.71-.78a.81.81,0,0,0-.44-1C339.18,244.35,338.87,244.7,338.79,245.19Z" style="fill: rgb(38, 50, 56); transform-origin: 339.384px 245.299px;" id="el8t2x8vr98g" class="animable"></path><path d="M344.35,246.23c-.08.5.12,1,.44,1s.64-.29.72-.77-.13-.95-.45-1S344.42,245.74,344.35,246.23Z" style="fill: rgb(38, 50, 56); transform-origin: 344.93px 246.342px;" id="el88p5ffq1e07" class="animable"></path><path d="M342.51,246.27a16.14,16.14,0,0,0,1.18,4.06,2.41,2.41,0,0,1-2.05-.14Z" style="fill: rgb(255, 86, 82); transform-origin: 342.665px 248.383px;" id="elcxku0vqg6qg" class="animable"></path><path d="M340.76,253a4.28,4.28,0,0,1-2.87-1.79.15.15,0,0,1,.05-.2.15.15,0,0,1,.2,0,4.11,4.11,0,0,0,3.21,1.71.15.15,0,0,1,.15.14.15.15,0,0,1-.14.16h0A5.41,5.41,0,0,1,340.76,253Z" style="fill: rgb(38, 50, 56); transform-origin: 339.686px 251.997px;" id="ela9pgud3mktm" class="animable"></path><path d="M338,243.25a.5.5,0,0,1-.12-.08.3.3,0,0,1,0-.42,2.79,2.79,0,0,1,2.55-.7.29.29,0,0,1,.21.35h0a.29.29,0,0,1-.37.2,2.26,2.26,0,0,0-2,.57A.28.28,0,0,1,338,243.25Z" style="fill: rgb(38, 50, 56); transform-origin: 339.221px 242.619px;" id="eljb39jzx4u4" class="animable"></path><path d="M344.87,243a.32.32,0,0,1,0-.14.3.3,0,0,1,.36-.22,2.8,2.8,0,0,1,2,1.7.3.3,0,0,1-.56.19,2.23,2.23,0,0,0-1.61-1.32A.3.3,0,0,1,344.87,243Z" style="fill: rgb(38, 50, 56); transform-origin: 346.048px 243.659px;" id="elslt5b6obv3" class="animable"></path></g><path d="M360.9,320.68l40.15-5.25a.76.76,0,0,0,.66-.85h0a.77.77,0,0,0-.85-.66l-40.16,5.25a.77.77,0,0,0-.65.86h0A.75.75,0,0,0,360.9,320.68Z" style="fill: rgb(255, 22, 148); transform-origin: 380.88px 317.301px;" id="elqrxbslze7p9" class="animable"></path><g id="ela8ys6d1imri"><path d="M360.9,320.68l40.15-5.25a.76.76,0,0,0,.66-.85h0a.77.77,0,0,0-.85-.66l-40.16,5.25a.77.77,0,0,0-.65.86h0A.75.75,0,0,0,360.9,320.68Z" style="opacity: 0.5; transform-origin: 380.88px 317.301px;" class="animable"></path></g><path d="M341.11,320.45l19.48.24a.75.75,0,0,0,.77-.75h0a.76.76,0,0,0-.75-.77l-19.48-.24a.77.77,0,0,0-.77.75h0A.75.75,0,0,0,341.11,320.45Z" style="fill: rgb(255, 22, 148); transform-origin: 350.86px 319.81px;" id="el7shor4nzlc" class="animable"></path><g id="el6zpf6qks2r"><path d="M341.11,320.45l19.48.24a.75.75,0,0,0,.77-.75h0a.76.76,0,0,0-.75-.77l-19.48-.24a.77.77,0,0,0-.77.75h0A.75.75,0,0,0,341.11,320.45Z" style="fill: rgb(255, 255, 255); opacity: 0.5; transform-origin: 350.86px 319.81px;" class="animable"></path></g><path d="M361.81,319.8l-21.45-.17s-.72-.42.72-.7,20.06-2.74,20.06-2.74Z" style="fill: rgb(255, 22, 148); transform-origin: 350.995px 317.995px;" id="elb53qd1mcswk" class="animable"></path><path d="M361.81,319.8l-20.94-.23s-.72-.43.72-.7,19.55-2.68,19.55-2.68Z" style="fill: rgb(255, 22, 148); transform-origin: 351.25px 317.995px;" id="elv2qgevw8jpe" class="animable"></path><g id="elplphbdkskrb"><path d="M361.81,319.8l-20.94-.23s-.72-.43.72-.7,19.55-2.68,19.55-2.68Z" style="fill: rgb(255, 255, 255); opacity: 0.2; transform-origin: 351.25px 317.995px;" class="animable"></path></g><path d="M361.8,319l37.44-4.9a2.71,2.71,0,0,0,2.3-2.74l-.82-19.18a2.2,2.2,0,0,0-2.51-2.11L360.77,295a2.71,2.71,0,0,0-2.3,2.75l.82,19.17A2.19,2.19,0,0,0,361.8,319Z" style="fill: rgb(255, 22, 148); transform-origin: 380.005px 304.536px;" id="elq0m48ovagtc" class="animable"></path><g id="elfqp7fqx8lwm"><path d="M361.8,319l37.44-4.9a2.71,2.71,0,0,0,2.3-2.74l-.82-19.18a2.2,2.2,0,0,0-2.51-2.11L360.77,295a2.71,2.71,0,0,0-2.3,2.75l.82,19.17A2.19,2.19,0,0,0,361.8,319Z" style="opacity: 0.4; transform-origin: 380.005px 304.536px;" class="animable"></path></g><path d="M362.89,318.8l37.44-4.89a2.72,2.72,0,0,0,2.3-2.75L401.81,292a2.2,2.2,0,0,0-2.51-2.12l-37.44,4.9a2.7,2.7,0,0,0-2.3,2.74l.82,19.18A2.19,2.19,0,0,0,362.89,318.8Z" style="fill: rgb(255, 22, 148); transform-origin: 381.095px 304.341px;" id="ells14asu2n6" class="animable"></path><g id="eldmdb3rcbvdd"><path d="M362.89,318.8l37.44-4.89a2.72,2.72,0,0,0,2.3-2.75L401.81,292a2.2,2.2,0,0,0-2.51-2.12l-37.44,4.9a2.7,2.7,0,0,0-2.3,2.74l.82,19.18A2.19,2.19,0,0,0,362.89,318.8Z" style="fill: rgb(255, 255, 255); opacity: 0.2; transform-origin: 381.095px 304.341px;" class="animable"></path></g><path d="M347.06,274.56c-4.09-.86-8.37,3.09-9.56,8.8s1.16,11.05,5.25,11.9,8.38-3.09,9.57-8.81S351.16,275.41,347.06,274.56Zm-3.53,19.73c-2.61-.54-3.86-5.13-2.8-10.25s4-8.83,6.66-8.29,3.87,5.14,2.81,10.26S346.15,294.83,343.53,294.29Z" style="fill: rgb(38, 50, 56); transform-origin: 344.91px 284.909px;" id="el5jpahf370yr" class="animable"></path><g id="elxbm5g1jah1"><path d="M350.19,286c-1.06,5.12-4,8.83-6.65,8.28s-3.87-5.13-2.81-10.25,4-8.83,6.66-8.29S351.26,280.89,350.19,286Z" style="fill: rgb(255, 255, 255); opacity: 0.5; transform-origin: 345.464px 285.011px;" class="animable"></path></g><path d="M341.39,294.78,337,308.62s.23,1.71,2.24.86,3.48-14.22,3.48-14.22Z" style="fill: rgb(38, 50, 56); transform-origin: 339.86px 302.248px;" id="el2s04qwb3j2z" class="animable"></path><path d="M337,298.56l3.09-1,0,7.67s-6.71,1.81-7.23-1.29l.81-1.7C334.33,300.75,335.32,299,337,298.56Z" style="fill: rgb(255, 139, 123); transform-origin: 336.475px 301.658px;" id="elptcyj13b1v7" class="animable"></path><polygon points="344.83 299.53 344.05 303.86 340.06 305.22 340.1 297.55 344.83 299.53" style="fill: rgb(255, 139, 123); transform-origin: 342.445px 301.385px;" id="elo63j24o2tpk" class="animable"></polygon><polygon points="375.76 259.82 375.73 259.83 375.69 259.82 375.73 259.81 375.76 259.82" style="fill: rgb(240, 240, 240); transform-origin: 375.725px 259.82px;" id="elxf0ph674bqn" class="animable"></polygon></g><g id="freepik--character-1--inject-1" class="animable" style="transform-origin: 146.385px 278.516px;"><g id="freepik--group--inject-1" class="animable" style="transform-origin: 134.911px 283.983px;"><path d="M145.48,172.55c.31-.06.65.27.75.74s-.06.93-.38,1-.65-.27-.75-.75S145.16,172.61,145.48,172.55Z" style="fill: rgb(38, 50, 56); transform-origin: 145.665px 173.421px;" id="elxam5dsu3njg" class="animable"></path><path d="M146.46,178.88a2.82,2.82,0,0,0,2.2-.92,17.2,17.2,0,0,1-3.16-3.6Z" style="fill: rgb(183, 77, 60); transform-origin: 147.08px 176.621px;" id="eljn7xvf8cbl" class="animable"></path><path d="M143,171.2a2.28,2.28,0,0,1,1.91-.83h.1a.29.29,0,1,0,0-.58,2.83,2.83,0,0,0-2.42,1,.32.32,0,0,0-.07.19.31.31,0,0,0,.29.3A.36.36,0,0,0,143,171.2Z" style="fill: rgb(38, 50, 56); transform-origin: 143.91px 170.529px;" id="el05ul8awyt9tr" class="animable"></path><path d="M139.81,200.38c-8.24.09-9.5-4.39-9.5-4.39,2.45-2.4,2.57-6.8,2.05-10.72a8.73,8.73,0,0,0,2.45,2.34,7.48,7.48,0,0,0,6,1.08.17.17,0,0,0,.1,0,2,2,0,0,0,0,.24c-.49,3.14-.05,6.5,3.24,7.49C144.14,196.39,148.89,200.28,139.81,200.38Z" style="fill: rgb(178, 91, 82); transform-origin: 137.846px 192.826px;" id="elai2i6o25l24" class="animable"></path><path d="M141.17,187.5c-.09.38-.17.76-.23,1.16a.17.17,0,0,1-.1,0,7.48,7.48,0,0,1-6-1.08,8.73,8.73,0,0,1-2.45-2.34c-.13-1-.31-2-.49-2.86l9,4.91Z" style="fill: rgb(178, 91, 82); transform-origin: 136.535px 185.629px;" id="eloighhrg7cin" class="animable"></path><path d="M127.8,196.74s1.3-4,3.27-5.29,10.59.05,11.94.58,2.72,3.64,2.72,3.64Z" style="fill: rgb(255, 22, 148); transform-origin: 136.765px 193.823px;" id="elprre58n1sgk" class="animable"></path><path d="M123.27,209.46a4.6,4.6,0,0,0,1.84-9l0,0c-3.7-.8-7.51-1.74-11.22-2.69s-5-1-8.49-2.22c-.89-.29-1.75-.63-2.6-1l-.47-.18a1,1,0,0,1-.22-.09,4,4,0,0,1-.64-.44c-1.17-1.07-9-11.26-10.49-14.72l-.05-.11a2.29,2.29,0,0,0-4.38,1.2c.47,4.2,8.17,18.38,9.74,20.19a12.2,12.2,0,0,0,1.65,1.48A11.1,11.1,0,0,0,99.8,203c1,.47,7.66,2.47,11.62,3.62s7.81,2.09,11.89,2.86Z" style="fill: rgb(178, 91, 82); transform-origin: 107.536px 193.558px;" id="elh0i315u4yti" class="animable"></path><path d="M90.39,177.89l0,.8a1.86,1.86,0,0,1-1.1,1.84,9,9,0,0,1-4.44.56l1.23-6.9,3.39,2.2A1.92,1.92,0,0,1,90.39,177.89Z" style="fill: rgb(178, 91, 82); transform-origin: 87.6226px 177.676px;" id="eltqaahmqu2in" class="animable"></path><polygon points="86.11 174.17 84.88 181.07 80.29 178.36 80.19 172.13 86.11 174.17" style="fill: rgb(178, 91, 82); transform-origin: 83.15px 176.6px;" id="elg53rdx6suy4" class="animable"></polygon><path d="M124.7,195.46c-1.77.26-8.77,1.76-14.58.12l-.38,11.87s10.09,5,14.66,1.39S131.84,198.72,124.7,195.46Z" style="fill: rgb(38, 50, 56); transform-origin: 119.38px 202.805px;" id="elp3d1op0te5i" class="animable"></path><polygon points="111.7 210.56 107.14 208.51 108.45 194.32 112.7 195.09 111.7 210.56" style="fill: rgb(255, 22, 148); transform-origin: 109.92px 202.44px;" id="eltvbwggysbkm" class="animable"></polygon><path d="M148.42,195c-1.33-.22-2.83-.42-4.35-.55a122,122,0,0,0-13.79.15l-3,.29c-4.8.35-9.63,4.52-8.67,9.24,5.33,26,3.81,40.48,3.32,44.71l32.43-.35c3.36-26.7,2.43-40.16,1.12-46.7A8.59,8.59,0,0,0,148.42,195Z" style="fill: rgb(38, 50, 56); transform-origin: 137.58px 221.581px;" id="el5nxaxztmr4v" class="animable"></path><g id="eleesk1ztml1"><path d="M155.4,239.1l-1,9.42c2.07-16.72,2.49-28.24,2.19-36.13l-12.32-8.23C149.8,221.61,151.61,227.12,155.4,239.1Z" style="opacity: 0.2; isolation: isolate; transform-origin: 150.473px 226.34px;" class="animable"></path></g><path d="M147.07,180.77a8.34,8.34,0,0,1-4,7H143a6.75,6.75,0,0,1-2,.86.17.17,0,0,1-.1,0,7.48,7.48,0,0,1-6-1.08,8.73,8.73,0,0,1-2.45-2.34c-1.62-2.21-2.29-5.17-3.45-9.33a8.39,8.39,0,0,1-.2-3.76,8.23,8.23,0,0,1,9.56-6.63C144.53,166.66,147.2,175.21,147.07,180.77Z" style="fill: rgb(178, 91, 82); transform-origin: 137.875px 177.103px;" id="elj1zrakam5cm" class="animable"></path><g id="el4xvsrp0s83"><path d="M143,187.8a6.75,6.75,0,0,1-2,.86s.23-3.67.23-3.67S142.54,187.81,143,187.8Z" style="opacity: 0.2; transform-origin: 142px 186.825px;" class="animable"></path></g><path d="M143.47,177.6a9.1,9.1,0,0,1-3.68,6.52,2.49,2.49,0,0,1-.88.43c-1,.24-2-.66-2.51-1.63a9.89,9.89,0,0,1-.8-4.07c-.12-3.29.29-6.89,2.6-9.23a3.12,3.12,0,0,1,2-1.06C143.14,168.45,143.68,175.72,143.47,177.6Z" style="fill: rgb(38, 50, 56); transform-origin: 139.546px 176.574px;" id="elzrauct1nnpe" class="animable"></path><path d="M130.55,162.84a3.24,3.24,0,0,0-3.8,4.74c-2.61.81-5.07,2.77-5.59,5.45s1.7,5.81,4.42,5.5a2.26,2.26,0,0,0,2.06,3.93c2.12,3.52,8.72,4.29,11.91,1.69.75-.61.21-1.25.37-2.2a2.24,2.24,0,0,0-1.17-2.43l.69-2.39-2-2.24c1.82-1.41,3.73-2.93,4.52-5.09s-.12-5.11-2.36-5.64a2.47,2.47,0,0,0,1.62-3.49,2.52,2.52,0,0,0-3.82-.4c-.63-.87-1.14-1.82-2.21-2.11C131,157,129.85,161.5,130.55,162.84Z" style="fill: rgb(38, 50, 56); transform-origin: 131.662px 171.831px;" id="el4tk4w94osf9" class="animable"></path><path d="M142,173.24c1.74.51,2.64,3.06,2.71,4.69.09,1.79-1.11,2.92-2.67,1.72a6.76,6.76,0,0,1-2.39-3.66C139.19,174.24,140.24,172.74,142,173.24Z" style="fill: rgb(178, 91, 82); transform-origin: 142.128px 176.645px;" id="el73dz3eeyden" class="animable"></path><path d="M138.92,402.66a.15.15,0,0,1-.13-.12.16.16,0,0,1,.07-.16c.12-.05,2.34-1.38,3.42-1.11a.75.75,0,0,1,.5.35.56.56,0,0,1,0,.66c-.26.38-1,.51-1.88.53A11.16,11.16,0,0,1,138.92,402.66Zm3-1.14a6.83,6.83,0,0,0-2.52.88c1.21.14,2.84.1,3.13-.32.06-.06.1-.15,0-.34a.45.45,0,0,0-.31-.21.93.93,0,0,0-.29,0Z" style="fill: rgb(255, 22, 148); transform-origin: 140.838px 402.022px;" id="el2hm4skngoqt" class="animable"></path><path d="M138.86,402.63a.18.18,0,0,1-.08-.14,4.14,4.14,0,0,1,.94-2.5,1.13,1.13,0,0,1,.86-.27c.42,0,.57.24.58.41.14.75-1.36,2.15-2.14,2.51H139A.18.18,0,0,1,138.86,402.63Zm1.62-2.62a.8.8,0,0,0-.53.23,3.61,3.61,0,0,0-.81,2c.79-.5,1.8-1.61,1.72-2.05,0,0,0-.17-.31-.17h-.08Z" style="fill: rgb(255, 22, 148); transform-origin: 139.975px 401.182px;" id="el5gvqe329wr" class="animable"></path><polygon points="132.13 387.79 138.54 387.67 138.31 402.5 131.86 402.63 132.13 387.79" style="fill: rgb(178, 91, 82); transform-origin: 135.2px 395.15px;" id="eluuglrz6dg1d" class="animable"></polygon><path d="M139.82,402.23c4.44,2.6,5.8,2.7,10.89,3.71,1.11.22.47,2.92-2.19,3-4.39.08-4.86-.12-8.6,0-3.21.06-6.89.28-9.44.37l-.23,0a.93.93,0,0,1-.72-1.11l1.13-5.76a.57.57,0,0,1,.54-.45l7.05-.14A3,3,0,0,1,139.82,402.23Z" style="fill: rgb(38, 50, 56); transform-origin: 140.369px 405.579px;" id="elflivwtekhft" class="animable"></path><g id="elvj9dwqybapc"><polygon points="132.12 387.8 131.99 395.42 138.43 395.3 138.54 387.68 132.12 387.8" style="opacity: 0.2; isolation: isolate; transform-origin: 135.265px 391.55px;" class="animable"></polygon></g><path d="M85.08,403.63a.15.15,0,0,1-.28,0c-.06-.11-1.34-2.34-1-3.41a.8.8,0,0,1,.35-.49.59.59,0,0,1,.68,0c.37.26.48,1,.48,1.88A11.07,11.07,0,0,1,85.08,403.63Zm-1.07-3a6.77,6.77,0,0,0,.8,2.51c.17-1.2.16-2.82-.26-3.12,0-.06-.14-.1-.33,0a.44.44,0,0,0-.22.31,1,1,0,0,0,0,.29Z" style="fill: rgb(255, 22, 148); transform-origin: 84.5263px 401.674px;" id="elbcwnhfvqbg9" class="animable"></path><path d="M85.07,403.69a.14.14,0,0,1-.14.06,4.06,4.06,0,0,1-2.48-1,1.05,1.05,0,0,1-.26-.85c0-.42.25-.57.42-.57.74-.13,2.13,1.39,2.48,2.16v.06A.14.14,0,0,1,85.07,403.69Zm-2.61-1.64a.87.87,0,0,0,.22.53,3.56,3.56,0,0,0,2,.82c-.48-.79-1.57-1.82-2-1.74,0,0-.17,0-.17.3v.09Z" style="fill: rgb(255, 22, 148); transform-origin: 83.64px 402.537px;" id="el6q4e1gyq9ju" class="animable"></path><polygon points="88.41 388.61 94.67 388.93 91.29 403.95 84.98 403.63 88.41 388.61" style="fill: rgb(178, 91, 82); transform-origin: 89.825px 396.28px;" id="elopiosqoz73i" class="animable"></polygon><path d="M83.46,402.83c-1.69,2-2.58,3.09-7.51,4.74-1.09.36-.11,2.95,2.54,2.66,4.37-.47,2-.41,5.68-.82,3.19-.34,6.87-.59,9.41-.82a.8.8,0,0,0,.26,0,.94.94,0,0,0,.59-1.19l-1.83-5.56a.55.55,0,0,0-.59-.38l-7,.75A2.2,2.2,0,0,0,83.46,402.83Z" style="fill: rgb(38, 50, 56); transform-origin: 84.9955px 405.854px;" id="elltp1p0wjksr" class="animable"></path><g id="elcyalvlpxq4"><polygon points="88.4 388.62 86.65 396.33 92.93 396.66 94.67 388.93 88.4 388.62" style="opacity: 0.2; isolation: isolate; transform-origin: 90.66px 392.64px;" class="animable"></polygon></g><path d="M121.9,248.87a66.67,66.67,0,0,0-5.69,12.07c-3.24,9.37-1.92,14.21-2.94,20.52-1.79,11.13-4.64,19.69-6.59,28.14-6.08,26.45-21.36,82.32-21.36,82.32l11.36,2.25s22.08-65,27.64-83.94c5-17.05,17.85-61.82,17.85-61.82Z" style="fill: rgb(255, 22, 148); transform-origin: 113.745px 321.29px;" id="elkn1s7c22std" class="animable"></path><path d="M121.9,248.87a66.67,66.67,0,0,0-5.69,12.07c-3.24,9.37-1.92,14.21-2.94,20.52-1.79,11.13-4.64,19.69-6.59,28.14-6.08,26.45-21.36,82.32-21.36,82.32l11.36,2.25s22.08-65,27.64-83.94c5-17.05,17.85-61.82,17.85-61.82Z" style="fill: rgb(255, 22, 148); transform-origin: 113.745px 321.29px;" id="elh2df6tpjs7" class="animable"></path><path d="M84,389.85l0,4,13.66,1.19s1.11-4.42,1.06-4.42Z" style="fill: rgb(255, 22, 148); transform-origin: 91.3608px 392.445px;" id="el39tz8j61atc" class="animable"></path><g id="el3e9tf6pmck5"><path d="M136.23,269c-4,14.06-9.17,31.85-11.91,41.18-.13.45-.27.92-.41,1.42.83-15.52,3.33-41.54,11.09-42.66A2.84,2.84,0,0,1,136.23,269Z" style="opacity: 0.3; isolation: isolate; transform-origin: 130.07px 290.25px;" class="animable"></path></g><path d="M132.33,248.6s-2.42,42.74-2.38,62.93c.05,18.81.31,82.45.31,82.45l10.91-.21s6.3-64.92,7.83-84.06c1.46-18.12,5.33-61.19,5.33-61.19Z" style="fill: rgb(255, 22, 148); transform-origin: 142.14px 321.25px;" id="eldcfqxkuk3yt" class="animable"></path><path d="M132.33,248.6s-2.42,42.74-2.38,62.93c.05,18.81.31,82.45.31,82.45l10.91-.21s6.3-64.92,7.83-84.06c1.46-18.12,5.33-61.19,5.33-61.19Z" style="fill: rgb(255, 22, 148); transform-origin: 142.14px 321.25px;" id="el15ijcfev428" class="animable"></path><path d="M128.57,390.19l.45,4,13.26-.26s.53-4.49.48-4.49Z" style="fill: rgb(255, 22, 148); transform-origin: 135.667px 391.815px;" id="elrz22r9p81e" class="animable"></path><path d="M172.22,184.74l3.31-2.29c.76,3.6,4.18,6.41,6.78,8.08,1.24.8,1.7,2.62.82,3.23l-2.15,1.5C178.37,197.06,172.22,184.74,172.22,184.74Z" style="fill: rgb(255, 22, 148); transform-origin: 177.903px 188.945px;" id="elmajajvstjqc" class="animable"></path><path d="M170.91,185.65l7.58-5.26a5.45,5.45,0,0,0,1.38-7.57h0a5.47,5.47,0,0,0-7.58-1.38l-7.58,5.26a5.45,5.45,0,0,0-1.37,7.57h0A5.45,5.45,0,0,0,170.91,185.65Z" style="fill: rgb(255, 22, 148); transform-origin: 171.603px 178.547px;" id="el63y0sfn60nf" class="animable"></path><g id="el8vbwvt5ev83"><path d="M170.91,185.65l7.58-5.26a5.45,5.45,0,0,0,1.38-7.57h0a5.47,5.47,0,0,0-7.58-1.38l-7.58,5.26a5.45,5.45,0,0,0-1.37,7.57h0A5.45,5.45,0,0,0,170.91,185.65Z" style="opacity: 0.3; transform-origin: 171.603px 178.547px;" class="animable"></path></g><path d="M194.23,177.46l-14.22,6c-1.12.78-11.18-13.73-10-14.51l10.6-11.21Z" style="fill: rgb(255, 22, 148); transform-origin: 182.072px 170.615px;" id="elbrdy4t12xs9" class="animable"></path><path d="M186.36,168.32c3.78,5.44,7.3,9.54,7.87,9.14s-2-5.13-5.8-10.58-7.3-9.54-7.87-9.14S182.59,162.87,186.36,168.32Z" style="fill: rgb(255, 22, 148); transform-origin: 187.395px 167.6px;" id="el1kocq5j2kz6h" class="animable"></path><g id="el5xkshcjt36l"><path d="M186.36,168.32c3.78,5.44,7.3,9.54,7.87,9.14s-2-5.13-5.8-10.58-7.3-9.54-7.87-9.14S182.59,162.87,186.36,168.32Z" style="opacity: 0.3; transform-origin: 187.395px 167.6px;" class="animable"></path></g><path d="M189.79,166.55c-.92-1.33-2.86-1.8-3.49-1.36s-.4,1.88.52,3.21,2.19,2,2.82,1.61A2.74,2.74,0,0,0,189.79,166.55Z" style="fill: rgb(255, 22, 148); transform-origin: 188.139px 167.575px;" id="el49z54cnwaua" class="animable"></path><path d="M171.16,191.34l1-2.82a8.88,8.88,0,0,1,3.3-4.29l2.12-1.47a.92.92,0,0,1,1.27.23,15.29,15.29,0,0,1,2.8,6.56,1.71,1.71,0,0,1-.7,1.54l-4.56,3.06c-.72.56-1.57.84-2.22.2Z" style="fill: rgb(178, 91, 82); transform-origin: 176.409px 188.659px;" id="elc0c0twqcoqd" class="animable"></path><path d="M176.27,192.16,173,205.88c-.1.45-.22.88-.33,1.31-2.76,10.24-8.08,15.68-10.52,14.42s-7.81-7.26-7.81-7.26l6.07-4.79,1.74,1.46,9.5-20.52,1.35-2.86S177.26,187.61,176.27,192.16Z" style="fill: rgb(178, 91, 82); transform-origin: 165.38px 204.715px;" id="elzl3hk30jwrd" class="animable"></path><path d="M173,205.88l-.31,1.32h0C172.77,206.76,172.89,206.33,173,205.88Z" style="fill: rgb(178, 91, 82); transform-origin: 172.845px 206.54px;" id="eltporaep9i7" class="animable"></path><path d="M155,197.87c5.56,4.55,9,14.23,9,14.23l-9,5.71s-11.8-8.37-10.88-16.32C144.78,195.4,148.13,192.23,155,197.87Z" style="fill: rgb(38, 50, 56); transform-origin: 154.034px 206.369px;" id="elnlsggxm8ryi" class="animable"></path><polygon points="149.8 215.87 152.98 219.25 165.36 211.29 163.44 207.37 149.8 215.87" style="fill: rgb(255, 22, 148); transform-origin: 157.58px 213.31px;" id="elt8yxi3vrzg" class="animable"></polygon></g><polygon points="196.29 162.24 202.74 146.78 207.87 149.61 196.29 162.24" style="fill: rgb(38, 50, 56); transform-origin: 202.08px 154.51px;" id="elxbvq05ozdpq" class="animable"></polygon><polygon points="196.95 167.8 213.68 166.85 212.7 161.07 196.95 167.8" style="fill: rgb(38, 50, 56); transform-origin: 205.315px 164.435px;" id="elux0x4vwdle" class="animable"></polygon><polygon points="201.13 162.39 213.92 147.52 218.98 153.08 201.13 162.39" style="fill: rgb(38, 50, 56); transform-origin: 210.055px 154.955px;" id="elniu0jyx112" class="animable"></polygon><polygon points="73.79 158.48 73.79 172.02 86.49 178.74 86.49 164.05 73.79 158.48" style="fill: rgb(255, 22, 148); transform-origin: 80.14px 168.61px;" id="elhcmmn634ntv" class="animable"></polygon><g id="elv97nk20uzf"><polygon points="73.79 158.48 73.79 172.02 86.49 178.74 86.49 164.05 73.79 158.48" style="opacity: 0.1; transform-origin: 80.14px 168.61px;" class="animable"></polygon></g><polygon points="99.18 158.48 99.18 172.02 86.49 178.74 86.49 164.05 99.18 158.48" style="fill: rgb(255, 22, 148); transform-origin: 92.835px 168.61px;" id="elybsc1qvnxnk" class="animable"></polygon><g id="el2djtp4b6vfw"><polygon points="99.18 158.48 99.18 172.02 86.49 178.74 86.49 164.05 99.18 158.48" style="opacity: 0.2; transform-origin: 92.835px 168.61px;" class="animable"></polygon></g><polygon points="73.79 158.48 86.49 164.05 99.18 158.48 86.49 152.1 73.79 158.48" style="fill: rgb(255, 22, 148); transform-origin: 86.485px 158.075px;" id="el06xsbkuahdeg" class="animable"></polygon><polygon points="92.17 161.55 92.17 169.96 92.83 168.86 93.23 169.45 93.65 168.5 94.07 169.09 94.07 160.72 92.17 161.55" style="fill: rgb(38, 50, 56); transform-origin: 93.12px 165.34px;" id="elfmn9j98j7oe" class="animable"></polygon><polygon points="92.17 161.55 79.23 155.75 81.32 154.69 94.07 160.72 92.17 161.55" style="fill: rgb(38, 50, 56); transform-origin: 86.65px 158.12px;" id="el2a2gnrvbgnr" class="animable"></polygon></g><g id="freepik--Device--inject-1" class="animable" style="transform-origin: 229.62px 379.16px;"><path d="M278.63,404.83H255.31c0-1.59,3-3,7.18-3.55v-10h8.95v10C275.66,401.85,278.63,403.23,278.63,404.83Z" style="fill: rgb(255, 22, 148); transform-origin: 266.97px 398.055px;" id="elimm0ncd3k9a" class="animable"></path><g id="elma3x2mxkwze"><path d="M278.63,404.83H255.31c0-1.59,3-3,7.18-3.55v-10h8.95v10C275.66,401.85,278.63,403.23,278.63,404.83Z" style="opacity: 0.4; transform-origin: 266.97px 398.055px;" class="animable"></path></g><rect x="229.23" y="353.4" width="75.78" height="40.75" style="fill: rgb(255, 22, 148); transform-origin: 267.12px 373.775px;" id="elginqbf7qv0f" class="animable"></rect><g id="elymo4wzrkjxo"><rect x="229.23" y="353.4" width="75.78" height="40.75" style="opacity: 0.2; transform-origin: 267.12px 373.775px;" class="animable"></rect></g><g id="ely9lmh6c76dq"><rect x="230.99" y="355.26" width="71.96" height="34.25" style="opacity: 0.2; transform-origin: 266.97px 372.385px;" class="animable"></rect></g><g id="elvad9ezddz7o"><rect x="262.49" y="394.15" width="8.95" height="2.16" style="opacity: 0.2; transform-origin: 266.965px 395.23px;" class="animable"></rect></g><polygon points="262.49 366.37 262.49 381.18 275.64 373.77 262.49 366.37" style="fill: rgb(255, 255, 255); transform-origin: 269.065px 373.775px;" id="elnotuibkbrfg" class="animable"></polygon><path d="M224.58,347.67a2.09,2.09,0,0,1-2,1.88h-13.3a1.68,1.68,0,0,1-1.71-1.88l.17-2h17.06Z" style="fill: rgb(255, 22, 148); transform-origin: 216.179px 347.61px;" id="el6gdg4zyeefh" class="animable"></path><path d="M198.1,350.06,193,408.23a5.05,5.05,0,0,0,5.11,5.6h24.21a6.24,6.24,0,0,0,6.09-5.6l5.09-58.17a5.05,5.05,0,0,0-5.11-5.6H204.18A6.24,6.24,0,0,0,198.1,350.06Z" style="fill: rgb(255, 22, 148); transform-origin: 213.25px 379.145px;" id="elfexpy4mcul" class="animable"></path><g id="elqb4yus0bezp"><g style="opacity: 0.4; transform-origin: 213.25px 379.145px;" class="animable"><path d="M224.58,347.67a2.09,2.09,0,0,1-2,1.88h-13.3a1.68,1.68,0,0,1-1.71-1.88l.17-2h17.06Z" id="elpqc6qayd75" class="animable" style="transform-origin: 216.179px 347.61px;"></path><path d="M198.1,350.06,193,408.23a5.05,5.05,0,0,0,5.11,5.6h24.21a6.24,6.24,0,0,0,6.09-5.6l5.09-58.17a5.05,5.05,0,0,0-5.11-5.6H204.18A6.24,6.24,0,0,0,198.1,350.06Z" style="fill: rgb(255, 22, 148); transform-origin: 213.25px 379.145px;" id="el81wv7qusp0x" class="animable"></path></g></g><path d="M202.59,345.66H226.8a4,4,0,0,1,4,4.43l-5.08,58.17a5,5,0,0,1-4.82,4.43H196.72a4,4,0,0,1-4-4.43l5.09-58.17A4.93,4.93,0,0,1,202.59,345.66Z" style="fill: rgb(255, 22, 148); transform-origin: 211.76px 379.175px;" id="elm2asn5nc3ob" class="animable"></path><g id="el7tn4ybth8xt"><path d="M202.59,345.66H226.8a4,4,0,0,1,4,4.43l-5.08,58.17a5,5,0,0,1-4.82,4.43H196.72a4,4,0,0,1-4-4.43l5.09-58.17A4.93,4.93,0,0,1,202.59,345.66Z" style="fill: rgb(255, 255, 255); opacity: 0.3; transform-origin: 211.76px 379.175px;" class="animable"></path></g><path d="M196.6,350.09l-5.09,58.17a5.06,5.06,0,0,0,5.11,5.6h24.21a6.25,6.25,0,0,0,6.09-5.6L232,350.09a5.05,5.05,0,0,0-5.11-5.6H202.69A6.24,6.24,0,0,0,196.6,350.09Zm1.17,0a4.93,4.93,0,0,1,4.82-4.43H226.8a4,4,0,0,1,4,4.43l-5.08,58.17a5,5,0,0,1-4.82,4.43H196.72a4,4,0,0,1-4-4.43Z" style="fill: rgb(255, 255, 255); transform-origin: 211.756px 379.175px;" id="elkvtg04elybe" class="animable"></path><path d="M223.26,345.69h0a3.39,3.39,0,0,1-3.31,3H209a2.75,2.75,0,0,1-2.78-3h17.06Z" style="fill: rgb(255, 255, 255); transform-origin: 214.744px 347.19px;" id="elac4kxk93g5d" class="animable"></path><path d="M211.35,381.57l-4.69-.92c.89,4.28-1.5,9-3.53,12-1,1.46-.6,3.67.64,3.92l3.06.6C210.53,397.92,211.35,381.57,211.35,381.57Z" style="fill: rgb(255, 22, 148); transform-origin: 206.958px 388.923px;" id="elcifviz2g87w" class="animable"></path><path d="M213.21,381.94l-10.76-2.11a6.49,6.49,0,0,1-5.1-7.6h0a6.48,6.48,0,0,1,7.59-5.1l10.76,2.11a6.49,6.49,0,0,1,5.11,7.59h0A6.5,6.5,0,0,1,213.21,381.94Z" style="fill: rgb(255, 22, 148); transform-origin: 209.079px 374.534px;" id="elax1m73vvfr" class="animable"></path><g id="el5nfglu8haih"><path d="M213.21,381.94l-10.76-2.11a6.49,6.49,0,0,1-5.1-7.6h0a6.48,6.48,0,0,1,7.59-5.1l10.76,2.11a6.49,6.49,0,0,1,5.11,7.59h0A6.5,6.5,0,0,1,213.21,381.94Z" style="opacity: 0.3; transform-origin: 209.079px 374.534px;" class="animable"></path></g><path d="M183.92,384.13l18.34-.24c1.59.31,5.63-20.28,4-20.59l-16.89-7.15Z" style="fill: rgb(255, 22, 148); transform-origin: 195.28px 370.14px;" id="elc7tqqvlzaxu" class="animable"></path><path d="M188.13,370.43c-1.51,7.72-3.4,13.86-4.21,13.7s-.24-6.55,1.28-14.28,3.4-13.86,4.21-13.7S189.65,362.7,188.13,370.43Z" style="fill: rgb(255, 22, 148); transform-origin: 186.665px 370.14px;" id="elyadlmve6x4" class="animable"></path><g id="el8q902hyt2m2"><path d="M188.13,370.43c-1.51,7.72-3.4,13.86-4.21,13.7s-.24-6.55,1.28-14.28,3.4-13.86,4.21-13.7S189.65,362.7,188.13,370.43Z" style="opacity: 0.3; transform-origin: 186.665px 370.14px;" class="animable"></path></g><path d="M183.55,370.14c.37-1.89,2.26-3.32,3.16-3.15s1.33,1.85,1,3.74-1.4,3.28-2.3,3.11S183.18,372,183.55,370.14Z" style="fill: rgb(255, 22, 148); transform-origin: 185.654px 370.415px;" id="elz7qoc44273n" class="animable"></path><path d="M216.14,386.61,213.68,384a10.63,10.63,0,0,0-5.64-3.1l-3-.59a1.1,1.1,0,0,0-1.28.85c-.36,1.79-.89,5.49.08,8.48a2,2,0,0,0,1.49,1.35l6.43,1.16c1.05.26,2.11.16,2.51-.85Z" style="fill: rgb(255, 192, 186); transform-origin: 209.714px 386.281px;" id="el5d1cqu0xjre" class="animable"></path><path d="M214.73,393.08l11.07,14.67,1.1-12.61-10.76-8.53S211.47,388.61,214.73,393.08Z" style="fill: rgb(255, 192, 186); transform-origin: 220.237px 397.18px;" id="elz0xi60wg75" class="animable"></path><polygon points="178.61 367.06 165.87 356.17 162.58 361.02 178.61 367.06" style="fill: rgb(255, 255, 255); transform-origin: 170.595px 361.615px;" id="elq4hlmb87dpq" class="animable"></polygon><polygon points="180.53 372.32 165.18 379.02 163.44 373.43 180.53 372.32" style="fill: rgb(255, 255, 255); transform-origin: 171.985px 375.67px;" id="el4e0gg2q1j9l" class="animable"></polygon><polygon points="174.36 369.38 156.24 361.88 154.23 369.13 174.36 369.38" style="fill: rgb(255, 255, 255); transform-origin: 164.295px 365.63px;" id="el7auh4k9r75w" class="animable"></polygon></g><g id="freepik--Target--inject-1" class="animable" style="transform-origin: 235.51px 205.295px;"><path d="M212.56,231.58l-3.26,17.14h4.08L219.09,235S218.68,230.76,212.56,231.58Z" style="fill: rgb(255, 22, 148); transform-origin: 214.195px 240.097px;" id="elktx5bp7q64" class="animable"></path><path d="M248.26,231.58l3.26,17.14h-4.08L241.73,235S242.14,230.76,248.26,231.58Z" style="fill: rgb(255, 22, 148); transform-origin: 246.625px 240.097px;" id="elyr7el3m3f8s" class="animable"></path><g id="elstwta3ozxrl"><path d="M212.56,231.58l-3.26,17.14h4.08L219.09,235S218.68,230.76,212.56,231.58Z" style="opacity: 0.3; transform-origin: 214.195px 240.097px;" class="animable"></path></g><g id="elo5ase6bvb2"><path d="M248.26,231.58l3.26,17.14h-4.08L241.73,235S242.14,230.76,248.26,231.58Z" style="opacity: 0.3; transform-origin: 246.625px 240.097px;" class="animable"></path></g><circle cx="230.37" cy="210.24" r="30.61" style="fill: rgb(255, 22, 148); transform-origin: 230.37px 210.24px;" id="elkum1kx7c9nq" class="animable"></circle><circle cx="230.76" cy="210.24" r="23.65" style="fill: rgb(255, 255, 255); transform-origin: 230.76px 210.24px;" id="elcninq1zjum9" class="animable"></circle><circle cx="230.37" cy="210.24" r="19" style="fill: rgb(255, 22, 148); transform-origin: 230.37px 210.24px;" id="el4fb6u0n49xo" class="animable"></circle><circle cx="230.37" cy="210.24" r="14.68" style="fill: rgb(255, 255, 255); transform-origin: 230.37px 210.24px;" id="el97dmzprhy9" class="animable"></circle><circle cx="230.37" cy="210.24" r="4.24" style="fill: rgb(255, 22, 148); transform-origin: 230.37px 210.24px;" id="elirmq5sjiwpa" class="animable"></circle><polygon points="264.34 161.87 264.34 169.63 255.99 179.63 255.98 179.63 254.41 173.57 264.34 161.87" style="fill: rgb(255, 22, 148); transform-origin: 259.375px 170.75px;" id="elk0jjp29rmgt" class="animable"></polygon><g id="elvrxb3aihah"><rect x="220.89" y="189.36" width="52.94" height="1.14" style="fill: rgb(38, 50, 56); transform-origin: 247.36px 189.93px; transform: rotate(-50.07deg);" class="animable"></rect></g><polygon points="271.26 169.77 262.98 179.63 255.99 179.63 264.34 169.63 271.26 169.77" style="fill: rgb(255, 22, 148); transform-origin: 263.625px 174.63px;" id="elggijbefu474" class="animable"></polygon><g id="el7c1thul9zvv"><polygon points="271.26 169.77 262.98 179.63 255.99 179.63 264.34 169.63 271.26 169.77" style="opacity: 0.2; transform-origin: 263.625px 174.63px;" class="animable"></polygon></g></g><g id="freepik--Money--inject-1" class="animable" style="transform-origin: 276.855px 226.832px;"><path d="M272,214l-2.66-5s2-3.67,4.49-3.81,5,2,5,2l3.13-1.3-2.35,8.84S275.35,218.25,272,214Z" style="fill: rgb(255, 22, 148); transform-origin: 275.65px 210.641px;" id="el7pz8f86fx58" class="animable"></path><path d="M292.63,232.7c0,11.22-7.06,15.78-15.77,15.78a15.78,15.78,0,0,1-15.78-15.78c0-8.71,7.06-19.83,15.78-19.83C276.86,212.87,292.63,222.43,292.63,232.7Z" style="fill: rgb(255, 22, 148); transform-origin: 276.855px 230.675px;" id="el7fvb70w2o3h" class="animable"></path><g id="el43u9q6vtqq6"><path d="M292.63,232.7c0,11.22-7.06,15.78-15.77,15.78a15.78,15.78,0,0,1-15.78-15.78c0-8.71,7.06-19.83,15.78-19.83C276.86,212.87,292.63,222.43,292.63,232.7Z" style="opacity: 0.2; transform-origin: 276.855px 230.675px;" class="animable"></path></g><path d="M282.17,234.53c0,2.26-1.82,3.78-4.67,4l-.38,1.87h-1.7l.37-1.87a8.16,8.16,0,0,1-3.92-1.32l1.15-2.11a6.54,6.54,0,0,0,3.22,1.21l.58-2.88c-1.59-.48-3.33-1.11-3.33-3.17,0-2.27,1.86-3.8,4.76-4l.37-1.87h1.71l-.38,1.89a7.45,7.45,0,0,1,3.14,1l-1,2.12a5.57,5.57,0,0,0-2.54-.89l-.6,3C280.48,232,282.17,232.56,282.17,234.53ZM277.29,231l.5-2.45c-1,.19-1.52.71-1.54,1.36S276.68,230.76,277.29,231Zm2.12,4c0-.5-.39-.8-1-1l-.46,2.33C278.88,236.09,279.41,235.62,279.41,235Z" style="fill: rgb(255, 255, 255); transform-origin: 277.48px 232.395px;" id="eljz5dby3ysd" class="animable"></path></g><defs>     <filter id="active" height="200%">         <feMorphology in="SourceAlpha" result="DILATED" operator="dilate" radius="2"></feMorphology>                <feFlood flood-color="#32DFEC" flood-opacity="1" result="PINK"></feFlood>        <feComposite in="PINK" in2="DILATED" operator="in" result="OUTLINE"></feComposite>        <feMerge>            <feMergeNode in="OUTLINE"></feMergeNode>            <feMergeNode in="SourceGraphic"></feMergeNode>        </feMerge>    </filter>    <filter id="hover" height="200%">        <feMorphology in="SourceAlpha" result="DILATED" operator="dilate" radius="2"></feMorphology>                <feFlood flood-color="#ff0000" flood-opacity="0.5" result="PINK"></feFlood>        <feComposite in="PINK" in2="DILATED" operator="in" result="OUTLINE"></feComposite>        <feMerge>            <feMergeNode in="OUTLINE"></feMergeNode>            <feMergeNode in="SourceGraphic"></feMergeNode>        </feMerge>            <feColorMatrix type="matrix" values="0   0   0   0   0                0   1   0   0   0                0   0   0   0   0                0   0   0   1   0 "></feColorMatrix>    </filter></defs></svg>