<svg xmlns="http://www.w3.org/2000/svg" viewBox="0 0 750 500"><g id="freepik--background-simple--inject-4"><path d="M644.08,155l-1.71-5.81c-14.47-49-54.08-86.73-103.75-96.56a131.51,131.51,0,0,0-19.39-2.38C472.3,48,424.76,71.37,397.36,110.15c-16.11,22.82-26.45,51.25-49.64,66.61-30.18,20-69.91,10.36-104.36.09s-74.23-19.8-104.33.32c-18.85,12.6-29.64,34.75-34.29,57.07-12.31,59.09,14.52,121.93,59.31,161.49s105,57.94,164.5,61.49c83.39,5,170.27-18.94,233.43-74.67S661,237.62,644.08,155Z" style="fill:#f5f5f5"></path></g><g id="freepik--Graphics--inject-4"><path d="M120.23,276.93l-.33.18-1,.48-3.76,1.78-13.84,6.44-.16.08-.08-.16-10.62-18,.32.1-19,8.71-.33-.1h0l0,0,0-.08-.09-.14-.17-.3-.35-.59-.69-1.18c-.46-.78-.91-1.56-1.37-2.33-.9-1.55-1.8-3.08-2.68-4.58-1.76-3-3.48-5.93-5.12-8.74l.32.1-19,8.66-.16.07-.09-.15c-3.21-5.55-5.82-10.06-7.65-13.21l-2.06-3.61c-.22-.4-.39-.71-.53-.95a2.08,2.08,0,0,1-.16-.33,1.54,1.54,0,0,1,.21.3l.58.92,2.15,3.56,7.8,13.12-.25-.07L61,258.11l.2-.09.12.19,5.13,8.73c.89,1.5,1.78,3,2.69,4.58.46.77.91,1.55,1.37,2.33l.69,1.18.35.59.17.29.09.15,0,.08,0,0v0h0l-.32-.1,19-8.69.2-.09.12.19,10.52,18-.25-.08,13.91-6.29,3.8-1.69,1-.42A1.77,1.77,0,0,1,120.23,276.93Z" style="fill:#263238"></path><path d="M661.79,444.71s-.08.08-.24.2l-.76.56-2.92,2.11-10.75,7.62-.13.09-.08-.14-9.87-17,.26.07-14.75,10.34-.28-.07h0v0l0,0,0-.07-.08-.14-.16-.28-.32-.56-.65-1.11-1.27-2.21-2.5-4.33-4.77-8.25.27.07c-5.55,3.85-10.55,7.34-14.78,10.28l-.12.08-.09-.14c-3-5.25-5.43-9.51-7.13-12.49-.83-1.46-1.47-2.61-1.93-3.42l-.49-.9c-.11-.2-.16-.31-.16-.31s.08.09.2.28l.52.87c.48.79,1.15,1.92,2,3.35l7.25,12.4-.21-.06,14.74-10.37.16-.11.1.18,4.78,8.25,2.5,4.32c.43.73.85,1.47,1.28,2.21l.64,1.11.33.56.16.28.08.14,0,.07,0,0v0h0l-.28-.07,14.76-10.31.16-.11.1.18,9.81,17-.21-.05,10.83-7.48c1.26-.86,2.25-1.54,3-2l.77-.51A1.19,1.19,0,0,1,661.79,444.71Z" style="fill:#263238"></path><path d="M564.43,115.35a2.06,2.06,0,0,1,0-.37c0-.27.08-.63.13-1.08.12-1,.3-2.36.52-4.12.49-3.61,1.18-8.78,2-15.13l0-.17h.18l20.86.76-.25.21c.89-6.39,1.87-13.38,2.88-20.67l.27-.23h.68l.69,0,1.36,0,2.71.1,5.3.21,10.12.41-.25.21c1.1-7.76,2.1-14.76,2.95-20.67l0-.17h.18l15.25.68,4.15.21,1.08.07a1.49,1.49,0,0,1,.37,0,2.12,2.12,0,0,1-.37,0h-1.08l-4.16-.11-15.26-.51L615,55c-.81,5.92-1.78,12.93-2.85,20.68l0,.22h-.22l-10.12-.39-5.3-.2-2.71-.1-1.36-.05-.69,0h-.68l.27-.22c-1,7.29-2,14.28-2.92,20.67l0,.22h-.22l-20.86-.86.2-.17c-.92,6.35-1.68,11.5-2.2,15.11l-.63,4.11-.18,1.07A1.52,1.52,0,0,1,564.43,115.35Z" style="fill:#263238"></path><path d="M104.88,428.27l-.24,0-.69-.16-2.62-.66-9.63-2.53-6.64-1.78-3.7-1-1.93-.52-1-.26a2.24,2.24,0,0,0-.92-.15,1.28,1.28,0,0,0-1.11,1.19,3.18,3.18,0,0,0,.19,1l.28,1c.37,1.41.75,2.85,1.14,4.31l2.39,9,2.39,9.05c.19.74.38,1.46.57,2.18a5.26,5.26,0,0,0,.31,1,1.27,1.27,0,0,0,.7.55,1.3,1.3,0,0,0,.89,0,2.55,2.55,0,0,0,.75-.61l1.5-1.49L98,438l7.12-6.95a4.19,4.19,0,0,0,.55-.59,1.38,1.38,0,0,0,.21-.65,1.47,1.47,0,0,0-.3-1,2.07,2.07,0,0,0-.74-.54,1.35,1.35,0,0,1,.23.06,1.44,1.44,0,0,1,.59.42,1.55,1.55,0,0,1,.38,1.1,1.61,1.61,0,0,1-.22.73,3.38,3.38,0,0,1-.56.64l-7,7.07L87.86,448.73l-1.49,1.49-.39.38a1.67,1.67,0,0,1-.52.34,1.74,1.74,0,0,1-1.23.06,1.8,1.8,0,0,1-1-.78,5.16,5.16,0,0,1-.37-1.11l-.57-2.17q-1.17-4.4-2.4-9.05c-.82-3.1-1.61-6.13-2.38-9.05-.39-1.47-.77-2.9-1.13-4.31-.1-.35-.19-.7-.28-1L76,423a2,2,0,0,1-.06-.6,1.78,1.78,0,0,1,1.54-1.65,2.91,2.91,0,0,1,1.11.17l1,.27,1.93.53,3.7,1,6.62,1.83,9.58,2.69,2.6.76.67.21Z" style="fill:#263238"></path><path d="M374.91,73.93a23,23,0,0,0-.44-2.63,10.74,10.74,0,0,0-14.1-7.38,10,10,0,0,0-2.69,1.45,9.9,9.9,0,0,0-2.25,2.27,10.61,10.61,0,0,0,0,12.59,10.05,10.05,0,0,0,2.25,2.26A9.79,9.79,0,0,0,360.37,84a10.79,10.79,0,0,0,5.61.48,10.68,10.68,0,0,0,4.51-2,10.88,10.88,0,0,0,4-5.88,22.89,22.89,0,0,0,.44-2.64,8.55,8.55,0,0,1-.25,2.69,11,11,0,0,1-8.61,8.23,11,11,0,0,1-5.84-.45,10.6,10.6,0,0,1-2.83-1.51A10.36,10.36,0,0,1,355,80.53a11.07,11.07,0,0,1,0-13.19A10.21,10.21,0,0,1,357.38,65a10.57,10.57,0,0,1,2.83-1.5,11,11,0,0,1,5.84-.46,11,11,0,0,1,8.61,8.24A8.49,8.49,0,0,1,374.91,73.93Z" style="fill:#263238"></path><path d="M362.73,451.08a23,23,0,0,0-.44-2.63,10.81,10.81,0,0,0-4-5.89,10.72,10.72,0,0,0-10.12-1.49,10.34,10.34,0,0,0-2.69,1.45,10.1,10.1,0,0,0-2.25,2.27,10.61,10.61,0,0,0,0,12.59,9.85,9.85,0,0,0,2.25,2.26,10.09,10.09,0,0,0,2.69,1.46,10.69,10.69,0,0,0,10.12-1.5,10.83,10.83,0,0,0,4-5.88,22.89,22.89,0,0,0,.44-2.64,8.68,8.68,0,0,1-.24,2.69,11,11,0,0,1-8.61,8.23,11.06,11.06,0,0,1-5.85-.45A10.6,10.6,0,0,1,345.2,460a10.78,10.78,0,0,1-2.36-2.36,11.07,11.07,0,0,1,0-13.19,10.95,10.95,0,0,1,5.19-3.87,11,11,0,0,1,10.51,1.65,10.88,10.88,0,0,1,3.95,6.13A8.62,8.62,0,0,1,362.73,451.08Z" style="fill:#263238"></path></g><g id="freepik--Character--inject-4"><polygon points="550.33 221.21 550.33 221.21 550.33 221.21 550.33 221.21" style="fill:#263238"></polygon><path d="M697.37,275.28c-.46-1.44-2-2.17-3.39-2.81-14.87-7-24-22.78-27.12-38.89-2.35-12.17-1.78-24.62-.49-37,5.47-25.36,6.73-52.34-28-63.29,0,0-28.27-9-44.26,7.62-8.66,9-25.8,47.47-40.06,80.32l-4.38,17.89,20.71,72.55a88.92,88.92,0,0,0,69.13-31.77l3.78,0c4.8,7.5,16.16,11.5,23,17.78,3.3,3,7.9,5.63,12,4,3.45-1.4,5.21-5.46,5.07-9.18s-1.78-7.2-3.39-10.56a20.82,20.82,0,0,0,14-1.71C696,279.23,698,277.33,697.37,275.28Z" style="fill:#263238"></path><path d="M623.31,252.26l33.6-82.89a7.41,7.41,0,0,0-3.87-9.26l-20.76-19.74-3.15,1.28c-14.54-5.78-31.43.18-39.38,18-5.75,12.85-11.4,26-13.19,36.45-3.6,21,10.84,28.77,10.84,28.77s-1,2.91-3.36,10.2l-11.75-1.46,3.2,17.06L592.15,273s23.51,0,23.26-.82,12.51-12.82,12.51-12.82Z" style="fill:#ffbf9d"></path><path d="M618.73,183.56a2.71,2.71,0,0,0,1.59,3.43,2.59,2.59,0,0,0,3.42-1.42,2.7,2.7,0,0,0-1.59-3.42A2.59,2.59,0,0,0,618.73,183.56Z" style="fill:#263238"></path><path d="M592.92,174.14a2.69,2.69,0,0,0,1.59,3.42,2.59,2.59,0,0,0,3.42-1.41,2.69,2.69,0,0,0-1.59-3.42A2.57,2.57,0,0,0,592.92,174.14Z" style="fill:#263238"></path><path d="M590.6,165.87c.2.44,2.63-.34,5.38.6s4.31,3,4.72,2.77c.2-.1.08-.81-.59-1.75a7.37,7.37,0,0,0-3.63-2.63,7.2,7.2,0,0,0-4.43-.07C591,165.16,590.49,165.66,590.6,165.87Z" style="fill:#263238"></path><path d="M617.9,177c.25.42,2.59-.6,5.42.05s4.59,2.55,5,2.27c.19-.12,0-.81-.76-1.68a7.38,7.38,0,0,0-3.89-2.24,7.08,7.08,0,0,0-4.41.39C618.22,176.26,617.78,176.81,617.9,177Z" style="fill:#263238"></path><path d="M600.68,192.93c.06-.15-1.55-1-4.2-2.32-.68-.31-1.3-.68-1.26-1.2a3.8,3.8,0,0,1,1.18-1.92l3.9-4.66c5.47-6.65,9.69-12.21,9.42-12.43s-4.93,5-10.4,11.65l-3.82,4.71a4.24,4.24,0,0,0-1.3,2.64,1.86,1.86,0,0,0,.8,1.42,5.25,5.25,0,0,0,1.14.57C598.88,192.49,600.61,193.09,600.68,192.93Z" style="fill:#263238"></path><path d="M587.72,224.9a53.63,53.63,0,0,0,29.16,1.93s-11.41,11.54-30.76,2.9Z" style="fill:#ff9a6c"></path><path d="M599.59,200a5.24,5.24,0,0,1,5.08-.33,4.79,4.79,0,0,1,2.56,2.74,3,3,0,0,1-.9,3.35,3.5,3.5,0,0,1-3.92-.31,11,11,0,0,1-2.81-3.29,3.5,3.5,0,0,1-.51-1.09,1,1,0,0,1,.35-1" style="fill:#ff9a6c"></path><path d="M608.14,197.59c-.44-.18-1.46,2.81-4.74,4.07s-6.35-.16-6.52.25c-.1.18.52.82,1.85,1.32a7.86,7.86,0,0,0,5.38,0,6.79,6.79,0,0,0,3.78-3.47C608.43,198.5,608.35,197.64,608.14,197.59Z" style="fill:#263238"></path><path d="M619.49,165.45c.1.83,3,1.11,6.25,2.28s5.72,2.68,6.32,2.09c.28-.29,0-1.12-.94-2.11a11.64,11.64,0,0,0-9.58-3.34C620.21,164.59,619.45,165.05,619.49,165.45Z" style="fill:#263238"></path><path d="M595.58,154.41c.27.79,2.39.79,4.69,1.53s4.07,1.85,4.74,1.35c.3-.26.21-1-.44-1.86a7.1,7.1,0,0,0-7.59-2.32C596,153.48,595.47,154,595.58,154.41Z" style="fill:#263238"></path><path d="M643.13,203.57s-15.55-1.17-9.85-38.42c1.94-12.74-5.14-26.49-5.14-26.49l4.92.42s24.24,18.49,24.56,19,1.3,16.84,1.3,16.84Z" style="fill:#263238"></path><path d="M640.22,201c.51-1.48,3.42-4.41,5-4.14,4.13.72,11.09,3.43,7.78,13.41-4.52,13.65-17.29,6.29-17.18,5.89S638.47,206.08,640.22,201Z" style="fill:#ffbf9d"></path><path d="M641.66,212.32c.07,0,.18.25.52.56a2.53,2.53,0,0,0,1.77.63c1.61,0,3.59-1.94,4.47-4.37a8.17,8.17,0,0,0,.46-3.63,2.87,2.87,0,0,0-1.18-2.41,1.27,1.27,0,0,0-1.62.18c-.31.32-.31.62-.39.62s-.22-.32.08-.85a1.59,1.59,0,0,1,.82-.68,1.94,1.94,0,0,1,1.43.09,3.53,3.53,0,0,1,1.78,2.94,8.58,8.58,0,0,1-.44,4.08c-1,2.72-3.26,4.82-5.42,4.74a2.67,2.67,0,0,1-2.05-1.08C641.57,212.66,641.6,212.33,641.66,212.32Z" style="fill:#ff9a6c"></path><path d="M636.33,193.32a17.75,17.75,0,0,1-1.84-1.19,12.93,12.93,0,0,1-3.66-4.64,17.66,17.66,0,0,1-1.33-3.88,24,24,0,0,1-.47-4.7,86.87,86.87,0,0,1,1-10.84c.44-3.86.72-7.55.76-10.91a59.52,59.52,0,0,0-.49-8.92,42.65,42.65,0,0,0-1.2-5.9c-.18-.68-.37-1.2-.49-1.56a1.91,1.91,0,0,0-.2-.53s0,.19.13.56.26.88.42,1.57a48.83,48.83,0,0,1,1.07,5.9,61.21,61.21,0,0,1,.41,8.87c-.06,3.35-.35,7-.79,10.87a85,85,0,0,0-.94,10.89,23.78,23.78,0,0,0,.51,4.76,17.84,17.84,0,0,0,1.4,3.94,12.7,12.7,0,0,0,3.81,4.64A7.88,7.88,0,0,0,636.33,193.32Z" style="fill:#263238"></path><path d="M667,200a3.22,3.22,0,0,0,0-.65c-.05-.51-.1-1.13-.16-1.88-.14-1.63-.45-4-.92-6.86s-1.19-6.29-2.13-10-2.22-7.81-3.76-12-3.29-8.07-5-11.55-3.4-6.51-4.93-9-2.82-4.48-3.78-5.8l-1.1-1.53a2.64,2.64,0,0,0-.42-.5,2.62,2.62,0,0,0,.31.58l1,1.59c.89,1.36,2.13,3.37,3.59,5.89s3.1,5.58,4.79,9,3.35,7.36,4.9,11.52,2.78,8.21,3.79,11.92,1.74,7.11,2.26,10,.91,5.2,1.12,6.81c.12.75.21,1.36.28,1.86A2,2,0,0,0,667,200Z" style="fill:#455a64"></path><path d="M611.86,263.23s28.45,3.45,31.67,4.92c0,0,11.16,7.76,18.12,19.44,15,25.2,44.48,73.73,37.14,96.13-3.78,11.54-13.85,37.14-67.39,7.5l7.39-29-34-53.4Z" style="fill:#455a64"></path><path d="M627.31,253.78l-3.58,2c-19.27,10.56-39-.29-41-21.72l-15.43-8.39-12.86-10.06-40.54,52.78L469,360.85l90.45,52.45,44.64-49.38,38.69-50.06,14.51-33.51Z" style="fill:#455a64"></path><path d="M565.38,406.77s0-.09.19-.25l.6-.71,2.35-2.67c2.07-2.33,5-5.65,8.7-9.75l13-14.41,7.67-8.51,4.06-4.49,2.07-2.3,2-2.38c11-12.78,20.71-24.52,27.4-33.29l7.91-10.4c.94-1.23,1.68-2.17,2.19-2.8l.58-.72c.14-.16.21-.24.22-.23s-.05.09-.17.26l-.55.75-2.1,2.86c-1.84,2.48-4.46,6.1-7.78,10.51-6.63,8.83-16.33,20.62-27.31,33.4l-2,2.38-2.08,2.3-4.06,4.49-7.69,8.48c-4.91,5.4-9.32,10.26-13,14.35l-8.82,9.64-2.42,2.6-.64.67Z" style="fill:#263238"></path><path d="M631.4,391.22a.77.77,0,0,1,0-.25c0-.19.09-.41.16-.7q.23-1,.63-2.67c.59-2.36,1.43-5.71,2.45-9.82,2.13-8.31,5-19.72,8.26-32.33l.07-.27.07-.27.26.09c6.2,2,11.9,4.41,17.06,6.62s9.76,4.33,13.62,6.09l9.13,4.19,2.48,1.15.64.3.21.12s-.08,0-.23-.07l-.66-.26c-.58-.23-1.44-.58-2.53-1.05-2.18-.93-5.32-2.32-9.19-4s-8.5-3.78-13.66-6-10.86-4.59-17-6.56l.33-.19-.07.27c-3.28,12.59-6.25,24-8.41,32.3l-2.61,9.77-.73,2.65c-.09.28-.15.5-.21.69Z" style="fill:#263238"></path><path d="M574.94,305.62c.95.67,27.2,11.46,31.26,14.45s26.22,20.5,26.22,20.5,10.27,5.79,10.2,5.87l-8.51,34.47-19.49-24.06s-20.08-7.65-22.7-9.54a8,8,0,0,1-4-6.45s-3.59-1-3.23-5.83c0,0-3.1-6.27.06-9.31l3.61-3.5s-20.59-12.48-20.83-12.74-2.94-2.79-1.91-5S574.94,305.62,574.94,305.62Z" style="fill:#ffbf9d"></path><path d="M465.22,140.25l15.45,69.93,73.75,5.4-11,35.92-17.66,17.62S449.31,266,441,247.53s-5.91-101.42-5.91-101.42Z" style="fill:#455a64"></path><g style="opacity:0.30000000000000004"><path d="M565.38,223.15s.26,123.77,0,144.34-4.48,44.22-4.48,44.22V218.92Z"></path></g><path d="M527.76,258.87a5.15,5.15,0,0,1-.15.93c-.15.68-.33,1.54-.57,2.61-.51,2.27-1.23,5.55-2.08,9.61-1.69,8.12-3.77,19.39-5.41,31.94s-2.51,24-2.94,32.28c-.22,4.14-.37,7.5-.45,9.82,0,1.09-.09,2-.12,2.67a4,4,0,0,1-.1.93,5.68,5.68,0,0,1-.06-.94c0-.69,0-1.57,0-2.67,0-2.32,0-5.68.2-9.84.3-8.3,1.09-19.76,2.72-32.35s3.81-23.86,5.65-32c.92-4,1.72-7.32,2.32-9.56.29-1,.53-1.91.71-2.58A4.06,4.06,0,0,1,527.76,258.87Z" style="fill:#263238"></path><rect x="132.68" y="135.92" width="430.21" height="278.97" style="fill:#fff"></rect><path d="M562.88,414.89c0-1.68-.08-108.66-.2-279l.2.2-430.17.06h0l.26-.26c0,99.11,0,193.47,0,279l-.24-.24,430.2.24-430.2.24h-.24v-.24c0-85.5,0-179.86,0-279v-.26h.29l430.17.05h.21v.21C563,306.23,562.89,413.21,562.88,414.89Z" style="fill:#263238"></path><polygon points="458.98 174.99 262.86 173.79 243.12 132.71 482.65 132.71 458.98 174.99" style="fill:#FF1694"></polygon><path d="M459,175h0l-196.14-1.2v0l-19.75-41.11H482.69l0,0Zm-196.13-1.25L459,175l23.64-42.23H243.16Z" style="fill:#263238"></path><g style="opacity:0.30000000000000004"><path d="M467.07,132.94c-8.35-2.22-18.72-.69-27.06-2.91a5.69,5.69,0,0,0-3.79-.11c-1.41.64-2,2.31-2.24,3.85a15.41,15.41,0,0,0,3.83,11.89,21.79,21.79,0,0,0,10.9,6.49c3.33.88,7,1.1,10.15-.25C464.39,149.52,467.93,138.9,467.07,132.94Z"></path></g><path d="M432.73,145.44s-4.59-6.5-5.08-9.35,1.4-13.1,1.4-13.1,4.16-3.06,5.55-1.52a20.44,20.44,0,0,1,2.59-2.42c2.21-1.88,3.3-3.19,7.62-1.5,0,0,3.59-3.15,5.45-2.72a29.18,29.18,0,0,1,3.67,1.15s7.19.35,8.45,2.76a6.46,6.46,0,0,0,3.06,2.46,8.88,8.88,0,0,1,4.68,5.13,18.28,18.28,0,0,1,.86,6.38l-7.5.23s-.83,16.17-2.79,17.35-2.61.64-2.61.64-3.25,2.9-5.67.32c0,0-5.92,1-7.68-1s-7.22-20.63-7.22-20.63l-.62,8.93s3.21,6.11,1.26,7.29S432.73,145.44,432.73,145.44Z" style="fill:#ffbf9d"></path><path d="M455.39,130.27c.31,0,.82,4.54,1.86,10.09s2.2,10,1.91,10.08-1.93-4.26-3-9.88S455.11,130.28,455.39,130.27Z" style="fill:#ff9a6c"></path><path d="M443,126.14c.28-.08,2.05,5.22,3.93,11.84s3.18,12.06,2.9,12.14-2.05-5.22-3.94-11.84S442.73,126.22,443,126.14Z" style="fill:#ff9a6c"></path><path d="M381.39,215.14a2.15,2.15,0,0,1-.16-.19l-.42-.56-1.59-2.19c-1.4-1.95-3.36-4.71-5.78-8.1l-4-5.61-2.21-3.13-1.15-1.64c-.2-.27-.39-.55-.59-.83a2.31,2.31,0,0,0-.62-.71,1.31,1.31,0,0,0-1.62.21,3.36,3.36,0,0,0-.47.87c-.15.32-.31.65-.46,1l-1.87,4-4,8.48-4,8.49-.95,2a5.2,5.2,0,0,0-.4,1,1.3,1.3,0,0,0,.19.88,1.22,1.22,0,0,0,.7.54,2.6,2.6,0,0,0,1,0l2.1-.18,14.71-1.23,9.93-.79a3.8,3.8,0,0,0,.8-.1,1.5,1.5,0,0,0,.57-.36,1.47,1.47,0,0,0,.43-1,1.9,1.9,0,0,0-.23-.88s.06.05.15.19a1.61,1.61,0,0,1,.18.69,1.56,1.56,0,0,1-.41,1.09,1.64,1.64,0,0,1-.64.43,3.78,3.78,0,0,1-.84.13l-9.9,1L355.22,220l-2.1.19-.54,0a1.82,1.82,0,0,1-.61-.07,1.79,1.79,0,0,1-1.24-2,4.76,4.76,0,0,1,.43-1.09l.95-2c1.27-2.74,2.59-5.58,3.95-8.49s2.68-5.74,3.95-8.48c.65-1.37,1.27-2.71,1.89-4,.15-.33.31-.65.46-1l.23-.49a1.64,1.64,0,0,1,.34-.5,1.77,1.77,0,0,1,2.23-.28,2.66,2.66,0,0,1,.75.84l.58.83,1.15,1.65,2.18,3.14,3.92,5.65,5.64,8.2,1.51,2.24.39.59C381.36,215.06,381.4,215.13,381.39,215.14Z" style="fill:#263238"></path></g><g id="freepik--Food--inject-4"><path d="M146.29,280l61.54,100.62a7.05,7.05,0,0,0,9.18,2.62l42.67-21.45a7,7,0,0,0,3.35-9L218.42,244.6Z" style="fill:#455a64"></path><g style="opacity:0.30000000000000004"><path d="M237.53,291a670.1,670.1,0,0,1-65.29,32.42l18.18,30.41s41.25-13,59.66-32.41Z"></path></g><g style="opacity:0.30000000000000004"><path d="M220.83,250.45S207.21,268.32,178,281.07c-21.22,9.27-27.41,6.13-27.41,6.13l-2.65-4.56,71.19-36.31Z"></path></g><path d="M218.5,237.34l5.33,6.36s-4.67,10.92-38.14,27.51c-29.93,14.84-40,13.05-40,13.05l-3.33-.79-1.47-7.84Z" style="fill:#e0e0e0"></path><path d="M218.5,237.34l-.4.22-1.15.59-4.43,2.23-16.4,8.18L141,275.86l.14-.28c.47,2.49,1,5.15,1.47,7.84l-.19-.21c1.08.25,2.29.56,3.43.8a17.55,17.55,0,0,0,3.69-.12c.61-.07,1.22-.15,1.83-.26s1.21-.2,1.81-.33c2.41-.48,4.75-1.13,7-1.83a135.58,135.58,0,0,0,13.18-4.88,240.68,240.68,0,0,0,22.81-11.19,134.35,134.35,0,0,0,17.34-11.28,61.06,61.06,0,0,0,6.13-5.4,23.58,23.58,0,0,0,4-5.07l0,.11-3.9-4.73-1-1.25c-.23-.28-.34-.44-.34-.44s.12.12.35.39l1,1.2,4,4.7,0,.05,0,.06a23.5,23.5,0,0,1-4,5.18,60.09,60.09,0,0,1-6.13,5.46,131.23,131.23,0,0,1-17.33,11.4A232.74,232.74,0,0,1,173.63,277,134.55,134.55,0,0,1,160.41,282a71,71,0,0,1-7.1,1.83c-.6.14-1.21.25-1.83.34s-1.23.2-1.86.26a18.45,18.45,0,0,1-3.8.13c-1.24-.26-2.38-.55-3.49-.81l-.17,0,0-.17c-.5-2.68-1-5.35-1.47-7.83l0-.2.17-.08,55.33-27.19,16.42-8,4.42-2.14,1.14-.54Z" style="fill:#263238"></path><path d="M141.17,276.25c1.76,3.49,20.14-2.78,41.83-13.19,14.8-7.11,34.67-20.83,35.44-25.83.6-3.87-20.49,2.41-41.83,13.18S139.4,272.76,141.17,276.25Z" style="fill:#fff"></path><path d="M141.17,276.25a1.38,1.38,0,0,1-.15-.44,2.6,2.6,0,0,1,.28-1.33,14.79,14.79,0,0,1,3.33-4,101.54,101.54,0,0,1,15.6-11.2,239.91,239.91,0,0,1,25.19-13.31c4.89-2.21,10.1-4.36,15.61-6.31,2.76-1,5.59-1.89,8.51-2.65,1.47-.38,3-.72,4.48-1a14.85,14.85,0,0,1,2.33-.19,3.92,3.92,0,0,1,.59,0,3.21,3.21,0,0,1,.61.09,2.53,2.53,0,0,1,.61.23,1.09,1.09,0,0,1,.48.57,1.12,1.12,0,0,1,0,.7,2.81,2.81,0,0,1-.19.6,6.23,6.23,0,0,1-.57,1.05,16.55,16.55,0,0,1-1.45,1.84,39.36,39.36,0,0,1-3.3,3.17c-2.29,2-4.67,3.78-7,5.48-4.76,3.39-9.55,6.38-14.21,9s-9.25,4.9-13.59,6.88-8.42,3.76-12.17,5.28a110.62,110.62,0,0,1-18.24,6,14.79,14.79,0,0,1-5.21.37,2.43,2.43,0,0,1-1.24-.55,1.18,1.18,0,0,1-.27-.38s.09.14.3.34a2.47,2.47,0,0,0,1.23.48,15,15,0,0,0,5.15-.46A115.59,115.59,0,0,0,166,270.45c3.74-1.54,7.81-3.32,12.13-5.33s8.9-4.22,13.54-6.91,9.4-5.66,14.14-9c2.37-1.7,4.73-3.49,7-5.46a36.9,36.9,0,0,0,3.25-3.13,16.73,16.73,0,0,0,1.4-1.77,6.16,6.16,0,0,0,.53-1,1.6,1.6,0,0,0,.17-.93c-.06-.23-.38-.39-.72-.46a2.34,2.34,0,0,0-.53-.08,3.5,3.5,0,0,0-.56,0,14.34,14.34,0,0,0-2.25.19c-1.49.23-3,.57-4.42.94-2.9.76-5.72,1.67-8.47,2.63-5.49,1.93-10.7,4.08-15.58,6.27a244.37,244.37,0,0,0-25.2,13.19,106.16,106.16,0,0,0-15.66,11,15.24,15.24,0,0,0-3.36,3.92,2.55,2.55,0,0,0-.32,1.28C141.11,276.1,141.19,276.24,141.17,276.25Z" style="fill:#263238"></path><path d="M198.46,239.1l3,3.57S199,249.19,180,258.14s-22.47,7.33-22.47,7.33l-.88-.37-1.82-4.48Z" style="fill:#e0e0e0"></path><path d="M198.46,239.1a1.13,1.13,0,0,1-.22.14l-.65.34-2.5,1.27-9.22,4.64c-7.83,3.89-18.68,9.28-30.9,15.37l.12-.33,1.82,4.47-.14-.14.63.27a1.51,1.51,0,0,0,.6.17,14.29,14.29,0,0,0,4-.49c1.33-.31,2.63-.71,3.9-1.12,2.55-.85,5-1.82,7.34-2.8,4.68-2,9-4,12.83-6.08a68.28,68.28,0,0,0,9.71-6.24,32.81,32.81,0,0,0,3.39-3,12.48,12.48,0,0,0,2.15-2.88l0,.1-2.17-2.67-.56-.71a1.66,1.66,0,0,1-.19-.26,1.25,1.25,0,0,1,.2.21l.59.66,2.29,2.64,0,0,0,.05a12,12,0,0,1-2.15,3,30.81,30.81,0,0,1-3.38,3.13,66.46,66.46,0,0,1-9.71,6.36c-3.82,2.11-8.15,4.15-12.85,6.16-2.35,1-4.8,2-7.37,2.82-1.28.42-2.59.83-3.94,1.14a14.37,14.37,0,0,1-4.22.51,2,2,0,0,1-.75-.22l-.62-.26-.1,0,0-.09c-.62-1.54-1.24-3.06-1.82-4.48l-.09-.22.22-.11,31.14-15.25,9.24-4.47,2.49-1.19.64-.29Z" style="fill:#263238"></path><path d="M155,261c1,2,11.52-1.35,23.52-7.41S199.42,241,198.43,239s-11.52,1.35-23.51,7.41S154,259,155,261Z" style="fill:#fff"></path><path d="M155,261s-.25-.36.06-1a8.22,8.22,0,0,1,1.86-2.28,57,57,0,0,1,8.77-6.34,137.35,137.35,0,0,1,14.17-7.53c2.74-1.26,5.66-2.51,8.77-3.61a48,48,0,0,1,4.81-1.47,19.44,19.44,0,0,1,2.55-.47,6.65,6.65,0,0,1,1.34,0,1.27,1.27,0,0,1,1.1,2.16,7.9,7.9,0,0,1-.81,1.07,21.07,21.07,0,0,1-1.9,1.77,46.85,46.85,0,0,1-4,3c-2.73,1.85-5.47,3.45-8.11,4.92a139.85,139.85,0,0,1-14.47,6.93,57.37,57.37,0,0,1-10.31,3.3,8.32,8.32,0,0,1-2.94.14c-.71-.14-.87-.57-.85-.56a1.25,1.25,0,0,0,.87.45,8.49,8.49,0,0,0,2.88-.23A61.64,61.64,0,0,0,169,257.75a148.06,148.06,0,0,0,14.38-7c2.62-1.47,5.35-3.08,8.06-4.92,1.35-.92,2.7-1.89,4-3a20,20,0,0,0,1.84-1.73,7,7,0,0,0,.75-1,1.21,1.21,0,0,0,.23-1,1.25,1.25,0,0,0-.93-.4,7.39,7.39,0,0,0-1.24,0,19.27,19.27,0,0,0-2.48.45c-1.63.4-3.22.91-4.76,1.45-3.09,1.09-6,2.32-8.74,3.57a145.2,145.2,0,0,0-14.18,7.41,60.43,60.43,0,0,0-8.82,6.17,8.69,8.69,0,0,0-1.91,2.18A1.29,1.29,0,0,0,155,261Z" style="fill:#263238"></path><path d="M172.67,250.81l-25-46.21,5.76-3.27,25.13,46.51C176.21,249,175.15,250.46,172.67,250.81Z" style="fill:#fff"></path><path d="M172.67,250.81a9.94,9.94,0,0,0,1.61-.51,11.91,11.91,0,0,0,1.78-1.06,18.49,18.49,0,0,1,2.45-1.51l0,.16c-4.63-8.4-14.2-26-25.17-46.28l-.09-.16.36.1-5.76,3.28.1-.35,17.66,32.86c2.21,4.14,4,7.49,5.23,9.83l1.41,2.68.36.71c.08.16.12.24.11.25a.89.89,0,0,1-.13-.21l-.39-.66c-.34-.63-.83-1.5-1.45-2.6-1.27-2.32-3.09-5.62-5.35-9.72-4.53-8.33-10.82-19.88-17.91-32.89l-.12-.23.22-.12,5.76-3.28.23-.13.13.23.09.16c11,20.31,20.43,37.94,24.92,46.42l.06.11-.11.05a19.54,19.54,0,0,0-2.46,1.45,10.35,10.35,0,0,1-1.83,1,6.21,6.21,0,0,1-1.23.36A2,2,0,0,1,172.67,250.81Z" style="fill:#263238"></path><polygon points="151.78 202.51 176.77 248.87 174.55 249.91 149.28 203.86 151.78 202.51" style="fill:#455a64"></polygon><path d="M170.25,251.44c0-.15,2.78-1,6-2.63s5.58-3.37,5.68-3.25a5.89,5.89,0,0,1-1.46,1.28,29.24,29.24,0,0,1-4,2.44,28.59,28.59,0,0,1-4.33,1.75A6.56,6.56,0,0,1,170.25,251.44Z" style="fill:#263238"></path><path d="M221.14,247.41a13.33,13.33,0,0,1-2.88-2.88,19.53,19.53,0,0,1-2.5-3.22,13.83,13.83,0,0,1,2.89,2.88A20.07,20.07,0,0,1,221.14,247.41Z" style="fill:#263238"></path><path d="M216,252.45a17.25,17.25,0,0,1-3-2.94,17,17,0,0,1-2.6-3.28,17.11,17.11,0,0,1,3,2.93A16.72,16.72,0,0,1,216,252.45Z" style="fill:#263238"></path><path d="M210.08,257.33a18.09,18.09,0,0,1-2.93-3.19,17.52,17.52,0,0,1-2.52-3.53,18.4,18.4,0,0,1,2.93,3.2A18.68,18.68,0,0,1,210.08,257.33Z" style="fill:#263238"></path><path d="M202.67,262.22a18.78,18.78,0,0,1-2.76-3.4,18.58,18.58,0,0,1-2.33-3.71,36.19,36.19,0,0,1,5.09,7.11Z" style="fill:#263238"></path><path d="M194.62,266.8a36.1,36.1,0,0,1-3.65-7.87,18.71,18.71,0,0,1,2.06,3.83A18.2,18.2,0,0,1,194.62,266.8Z" style="fill:#263238"></path><path d="M187.78,270.05a16.74,16.74,0,0,1-1.89-3.69,17.15,17.15,0,0,1-1.42-3.91,32.6,32.6,0,0,1,3.31,7.6Z" style="fill:#263238"></path><path d="M180.55,273.46a23.75,23.75,0,0,1-2.61-7.84,20.75,20.75,0,0,1,1.45,3.87A21.22,21.22,0,0,1,180.55,273.46Z" style="fill:#263238"></path><path d="M171.85,277.22a18.16,18.16,0,0,1-1.13-4.17,17.83,17.83,0,0,1-.61-4.27,36.54,36.54,0,0,1,1.74,8.44Z" style="fill:#263238"></path><path d="M163.88,280.57a37,37,0,0,1-1.9-8.5,37,37,0,0,1,1.9,8.5Z" style="fill:#263238"></path><path d="M153.92,283.46a16.58,16.58,0,0,1-.84-4,16.77,16.77,0,0,1-.34-4.13,16.31,16.31,0,0,1,.85,4A15.87,15.87,0,0,1,153.92,283.46Z" style="fill:#263238"></path><path d="M145.89,284.42a26.47,26.47,0,0,1-1-7.3,26.47,26.47,0,0,1,1,7.3Z" style="fill:#263238"></path><path d="M227.25,224.23l15.61,136.09a8.17,8.17,0,0,0,8.38,7.24l55.44-1.72A8.19,8.19,0,0,0,314.6,358l5.93-135.79Z" style="fill:#FF1694"></path><path d="M227.25,224.23l1.66-.06,4.91-.13,18.77-.45L320.53,222h.22v.22c-1.57,36.25-3.51,81.12-5.61,129.6q-.13,2.88-.25,5.75a8.57,8.57,0,0,1-1.95,5.44A8.42,8.42,0,0,1,308,366a21.46,21.46,0,0,1-2.85.2l-2.82.08-22.14.69-21.36.65-5.21.16c-.87,0-1.72.07-2.59.07a7.85,7.85,0,0,1-2.6-.4,8.33,8.33,0,0,1-4.19-3,8.91,8.91,0,0,1-1.69-4.8c-3-26.55-5.73-50.45-8-70.52s-4.09-36.27-5.35-47.49c-.63-5.59-1.11-9.93-1.44-12.88-.16-1.46-.28-2.58-.37-3.34s-.11-1.13-.11-1.13.06.4.15,1.16.23,1.9.41,3.37l1.52,12.94c1.31,11.22,3.2,27.44,5.54,47.48s5.07,43.87,8.14,70.35a8.49,8.49,0,0,0,1.6,4.57,7.85,7.85,0,0,0,3.95,2.83c1.57.57,3.29.33,5,.31l5.21-.16,21.37-.67,22.13-.7,2.82-.08a19.47,19.47,0,0,0,2.78-.19,7.92,7.92,0,0,0,4.64-2.74,8,8,0,0,0,1.83-5.13c.08-1.91.16-3.83.25-5.75,2.13-48.48,4.11-93.35,5.71-129.59l.22.22-67.81,1.33-18.82.35-4.95.08Z" style="fill:#263238"></path><g style="opacity:0.30000000000000004"><path d="M318,280.41a781.11,781.11,0,0,1-84.63,2.21l4.28,40.92s49.8,6.48,78.68-5Z"></path></g><g style="opacity:0.30000000000000004"><path d="M320.21,229.57s-23.09,12.16-60.09,11.3c-26.88-.62-31.86-6.94-31.86-6.94l-.57-6.11,92.75-3.42Z"></path></g><path d="M324.17,214.63l2.5,9.29s-10.26,9.23-53.62,10.34c-38.79,1-48.48-5.82-48.48-5.82L221.44,226l2.29-9Z" style="fill:#e0e0e0"></path><path d="M324.17,214.63l-.52,0-1.5.05-5.76.18-21.26.58-71.39,1.79.24-.19c-.73,2.85-1.5,5.89-2.28,9l-.09-.27c1,.8,2.14,1.71,3.23,2.53a20.91,20.91,0,0,0,3.95,1.67c.68.24,1.36.44,2.05.63s1.38.37,2.08.53a84.22,84.22,0,0,0,8.32,1.53,156.14,156.14,0,0,0,16.27,1.3,277.75,277.75,0,0,0,29.5-.63,156.14,156.14,0,0,0,23.78-3.41,72.21,72.21,0,0,0,9.1-2.69,27.4,27.4,0,0,0,6.71-3.38l0,.1c-.78-3-1.38-5.31-1.8-6.9-.19-.77-.35-1.37-.46-1.8s-.14-.62-.14-.62l.18.58.5,1.77c.45,1.59,1.09,3.92,1.93,6.92V224l-.05,0a27.25,27.25,0,0,1-6.75,3.49,69.49,69.49,0,0,1-9.12,2.75,153.3,153.3,0,0,1-23.82,3.52,272.81,272.81,0,0,1-29.56.69,154.67,154.67,0,0,1-16.32-1.28c-2.78-.39-5.58-.85-8.37-1.53-.71-.16-1.4-.34-2.1-.54s-1.39-.4-2.08-.63a22.38,22.38,0,0,1-4.05-1.72c-1.18-.88-2.24-1.76-3.29-2.57l-.13-.1,0-.17c.79-3.08,1.56-6.12,2.29-9l.05-.19h.19l71.56-1.59,21.22-.42,5.71-.1h2Z" style="fill:#263238"></path><path d="M223.69,217.78c.15,4.54,22.57,6.93,50.51,6.57,19.07-.25,46.7-5,50-9.88,2.52-3.78-22.76-7.48-50.5-6.56S223.54,213.24,223.69,217.78Z" style="fill:#fff"></path><path d="M223.69,217.78a1.7,1.7,0,0,1,.07-.54,3,3,0,0,1,1-1.26,17.3,17.3,0,0,1,5.47-2.6c5-1.64,12.54-3.09,21.91-4.15a278,278,0,0,1,33-1.69c6.23.07,12.77.34,19.52,1,3.38.33,6.81.75,10.26,1.37a53,53,0,0,1,5.18,1.18,18.94,18.94,0,0,1,2.54.93,6.36,6.36,0,0,1,1.2.7,1.63,1.63,0,0,1,.76,1.34,1.28,1.28,0,0,1-.34.73,2.7,2.7,0,0,1-.49.52,7.29,7.29,0,0,1-1.11.83,18.28,18.28,0,0,1-2.42,1.22,45.15,45.15,0,0,1-5,1.73c-3.38,1-6.76,1.7-10.09,2.33A195.34,195.34,0,0,1,285.73,224c-3.1.26-6.14.44-9.09.53s-5.82.08-8.59.08c-5.54,0-10.7-.16-15.4-.39-9.41-.47-17-1.33-22.15-2.57a17.07,17.07,0,0,1-5.66-2.15,2.74,2.74,0,0,1-1-1.18,1.35,1.35,0,0,1-.1-.4c0-.09,0-.13,0-.13a4.6,4.6,0,0,0,.16.51,2.77,2.77,0,0,0,1.05,1.11,17.76,17.76,0,0,0,5.64,2c5.13,1.16,12.73,2,22.13,2.39,4.7.21,9.85.33,15.38.32,2.77,0,5.64,0,8.58-.1s6-.28,9.06-.54c6.2-.54,12.68-1.37,19.33-2.61,3.32-.63,6.69-1.36,10-2.33a42.26,42.26,0,0,0,5-1.71,18.3,18.3,0,0,0,2.34-1.18,6.67,6.67,0,0,0,1-.77,2.27,2.27,0,0,0,.42-.46.74.74,0,0,0,.24-.46c0-.3-.23-.63-.56-.88a5.66,5.66,0,0,0-1.1-.64,17.76,17.76,0,0,0-2.47-.9c-1.69-.49-3.41-.85-5.12-1.17-3.43-.62-6.85-1-10.22-1.37-6.73-.66-13.26-.94-19.48-1a286.17,286.17,0,0,0-33,1.57c-9.35,1-16.87,2.41-21.89,4a17.75,17.75,0,0,0-5.47,2.5,3,3,0,0,0-1,1.19C223.7,217.59,223.71,217.78,223.69,217.78Z" style="fill:#263238"></path><path d="M302.2,206.68l1.41,5.23s-5.76,5.66-30.14,5.8-27.25-3.27-27.25-3.27l-.75-.82.28-5.61Z" style="fill:#e0e0e0"></path><path d="M302.2,206.68l-.3,0-.85,0-3.24.12-12,.36-40.09,1.05L246,208c-.08,1.78-.17,3.68-.27,5.6l-.06-.19.53.59a1.82,1.82,0,0,0,.55.49,16.55,16.55,0,0,0,4.51,1.46c1.55.33,3.12.54,4.66.73,3.1.35,6.15.52,9.1.64,5.91.19,11.47.19,16.49-.13a79,79,0,0,0,13.29-1.84,35.75,35.75,0,0,0,5.06-1.56,14.5,14.5,0,0,0,3.68-2l0,.1-1-3.87c-.11-.43-.19-.76-.25-1a3.29,3.29,0,0,1-.08-.36,1,1,0,0,1,.11.32c.08.25.17.57.3,1l1.1,3.89,0,.06,0,0a14.24,14.24,0,0,1-3.73,2.09,34.15,34.15,0,0,1-5.08,1.63,76,76,0,0,1-13.34,2c-5,.35-10.61.38-16.54.2-3-.11-6-.28-9.14-.63-1.55-.19-3.13-.4-4.71-.73a16.6,16.6,0,0,1-4.67-1.53,2.53,2.53,0,0,1-.67-.58l-.53-.59-.07-.08v-.11c.1-1.92.19-3.82.28-5.6v-.24h.24l40.25-.85,11.92-.21,3.2,0h.82A1,1,0,0,1,302.2,206.68Z" style="fill:#263238"></path><path d="M245.72,208.45c.09,2.55,12.8,4.21,28.39,3.69s28.18-3,28.09-5.55-12.79-4.2-28.39-3.69S245.64,205.9,245.72,208.45Z" style="fill:#fff"></path><path d="M245.72,208.45a.76.76,0,0,1,0-.3,1.7,1.7,0,0,1,.53-.73,10,10,0,0,1,3.08-1.49,66.65,66.65,0,0,1,12.33-2.37,162.07,162.07,0,0,1,18.61-1c3.5,0,7.19.13,11,.49,1.9.18,3.83.42,5.78.8a23.52,23.52,0,0,1,2.91.76,8.1,8.1,0,0,1,1.42.63,1.44,1.44,0,0,1,.09,2.74,9.43,9.43,0,0,1-1.37.72,21.72,21.72,0,0,1-2.86.94,56.49,56.49,0,0,1-5.72,1.19c-3.77.6-7.44,1-10.94,1.21a162.57,162.57,0,0,1-18.63.23,65.65,65.65,0,0,1-12.46-1.56,9.77,9.77,0,0,1-3.17-1.28,1.7,1.7,0,0,1-.58-.69.85.85,0,0,1-.05-.3,1.46,1.46,0,0,0,.69.9,10,10,0,0,0,3.16,1.18A69.74,69.74,0,0,0,262,211.91a168.69,168.69,0,0,0,18.57-.34c3.49-.26,7.15-.63,10.9-1.24a57.73,57.73,0,0,0,5.67-1.18,21.68,21.68,0,0,0,2.79-.92,8.65,8.65,0,0,0,1.28-.67c.39-.26.73-.62.73-1s-.39-.68-.8-.91a8.24,8.24,0,0,0-1.32-.58,22,22,0,0,0-2.84-.74,57.57,57.57,0,0,0-5.73-.8c-3.79-.36-7.46-.49-11-.52a170.89,170.89,0,0,0-18.56.88,70.07,70.07,0,0,0-12.31,2.2,9.93,9.93,0,0,0-3.07,1.38A1.45,1.45,0,0,0,245.72,208.45Z" style="fill:#263238"></path><path d="M269.31,206.4l-3.73-60.9,7.67-.63L277,206.14C274,206.17,272.09,207.23,269.31,206.4Z" style="fill:#fff"></path><path d="M269.31,206.4a12,12,0,0,0,1.95.25,12.72,12.72,0,0,0,2.39-.24A22.4,22.4,0,0,1,277,206l-.12.12c-.76-11.11-2.23-34.3-3.85-61.06l0-.21.29.25-7.68.63.24-.28c1,17.13,1.9,32.32,2.55,43.26.3,5.45.54,9.85.71,12.91.08,1.5.14,2.68.18,3.51,0,.38,0,.68,0,.92a1.73,1.73,0,0,1,0,.32l0-.29c0-.23,0-.52-.08-.89-.06-.82-.14-2-.25-3.45-.2-3.06-.5-7.43-.87-12.86-.69-11-1.66-26.22-2.76-43.39v-.26l.25,0,7.67-.63.27,0v.27l0,.21c1.62,26.76,3,50,3.56,61.08v.12H277a23,23,0,0,0-3.3.33,12.51,12.51,0,0,1-2.42.19,8,8,0,0,1-1.47-.22C269.46,206.46,269.31,206.4,269.31,206.4Z" style="fill:#263238"></path><polygon points="270.93 145.31 274.58 206.36 271.73 206.36 267.64 145.51 270.93 145.31" style="fill:#455a64"></polygon><path d="M266.46,205.87c0-.16,3.41.35,7.6.21s7.54-.84,7.57-.68a8.39,8.39,0,0,1-2.16.6,34.36,34.36,0,0,1-5.4.6,33.92,33.92,0,0,1-5.41-.26A7.72,7.72,0,0,1,266.46,205.87Z" style="fill:#263238"></path><path d="M322,226.53a17.79,17.79,0,0,1-1.59-4.46,26,26,0,0,1-1.09-4.6,18.56,18.56,0,0,1,1.59,4.46A28.12,28.12,0,0,1,322,226.53Z" style="fill:#263238"></path><path d="M314.13,229.3a22.67,22.67,0,0,1-1.68-4.57,22.44,22.44,0,0,1-1.18-4.72,23,23,0,0,1,1.68,4.57A23.38,23.38,0,0,1,314.13,229.3Z" style="fill:#263238"></path><path d="M305.52,231.56a24.23,24.23,0,0,1-1.48-4.81,24.05,24.05,0,0,1-1-4.93,24.51,24.51,0,0,1,1.48,4.81A24.05,24.05,0,0,1,305.52,231.56Z" style="fill:#263238"></path><path d="M295.33,233.08a24.77,24.77,0,0,1-1.2-4.94,23.89,23.89,0,0,1-.68-5,25.2,25.2,0,0,1,1.19,4.94A25.19,25.19,0,0,1,295.33,233.08Z" style="fill:#263238"></path><path d="M284.61,234a24.85,24.85,0,0,1-.26-5,25,25,0,0,1,.26-5,24.15,24.15,0,0,1,.26,5A24.85,24.85,0,0,1,284.61,234Z" style="fill:#263238"></path><path d="M275.82,234.05a22.06,22.06,0,0,1-.15-4.82,23.11,23.11,0,0,1,.38-4.8,22.47,22.47,0,0,1,.14,4.82A22.74,22.74,0,0,1,275.82,234.05Z" style="fill:#263238"></path><path d="M266.53,234.1a18.56,18.56,0,0,1,.17-4.81,18.28,18.28,0,0,1,.92-4.72,28.82,28.82,0,0,1-.4,4.78A28.89,28.89,0,0,1,266.53,234.1Z" style="fill:#263238"></path><path d="M255.53,233.81a24.19,24.19,0,0,1,.89-4.93,24.07,24.07,0,0,1,1.4-4.81,24.42,24.42,0,0,1-.89,4.93A24.07,24.07,0,0,1,255.53,233.81Z" style="fill:#263238"></path><path d="M245.5,233.44a25.15,25.15,0,0,1,.82-5,24.35,24.35,0,0,1,1.33-4.88,25,25,0,0,1-.82,5A23.8,23.8,0,0,1,245.5,233.44Z" style="fill:#263238"></path><path d="M233.6,231.62a21.64,21.64,0,0,1,1.12-4.67,22.55,22.55,0,0,1,1.63-4.52,22.35,22.35,0,0,1-1.13,4.67A23.06,23.06,0,0,1,233.6,231.62Z" style="fill:#263238"></path><path d="M224.67,228.69a17.58,17.58,0,0,1,1-4.17,18,18,0,0,1,1.48-4,17.71,17.71,0,0,1-1,4.18A17.51,17.51,0,0,1,224.67,228.69Z" style="fill:#263238"></path><path d="M292.86,323s3.54-41.16,3.93-45.23l7.07-1.81,4.51,3.36L301.69,332l-9.85.6Z" style="fill:#ffbf9d"></path><path d="M292.86,323s0,.06,0,.16l0,.48c0,.45-.09,1.07-.16,1.87-.17,1.66-.4,4.05-.69,7.07l-.14-.15,9.84-.65-.17.17c1.46-11.73,3.48-27.83,5.7-45.6.31-2.39.6-4.74.9-7.06l.1.24-4.5-3.36.22,0-7.08,1.8.18-.22c-1.17,13.13-2.19,24.43-2.91,32.47-.37,4-.67,7.16-.88,9.38-.11,1.07-.2,1.9-.26,2.5,0,.26-.06.48-.08.64a.74.74,0,0,1,0,.22s0-.07,0-.22,0-.38,0-.65c.05-.6.11-1.44.18-2.51.18-2.22.43-5.4.74-9.38.68-8.06,1.63-19.36,2.73-32.49l0-.18.17,0,7.07-1.82.12,0,.1.08,4.5,3.36.12.09,0,.15c-.29,2.31-.59,4.67-.89,7.06-2.28,17.76-4.35,33.85-5.86,45.57l0,.16h-.15l-9.85.56h-.16l0-.15c.35-3,.62-5.41.81-7.07.1-.79.18-1.4.24-1.85l.07-.48C292.84,323.05,292.85,323,292.86,323Z" style="fill:#263238"></path><polygon points="299.53 281.13 295.34 331.03 289.75 331.78 294.8 276.57 299.53 281.13" style="fill:#ffbf9d"></polygon><path d="M319.3,278.85s-6.67,27.06-7.94,32.77-3.45,21.31-3.45,21.31l7.23,1,12.27-52.37-4.89-2.88Z" style="fill:#ffbf9d"></path><path d="M319.3,278.85a.92.92,0,0,1,.2,0l.6-.05,2.42-.16h0l4.92,2.84.08.05,0,.09c-2.37,10.43-6.9,30-12.14,52.36v0l-.05.23-.24,0-7.23-1-.25,0,0-.25c1.14-7.72,2.17-15,3.54-21.53,1.59-6.47,3-12.26,4.21-17.1s2.16-8.65,2.83-11.35c.34-1.3.6-2.31.78-3q.14-.48.21-.78a2.27,2.27,0,0,1,.08-.25,1.2,1.2,0,0,1-.05.29l-.17.81c-.17.74-.41,1.78-.71,3.1l-2.68,11.4c-1.15,4.83-2.52,10.58-4.05,17-1.34,6.49-2.35,13.79-3.47,21.5l-.22-.29,7.22,1-.28.2v0c5.25-22.36,9.88-41.91,12.39-52.3l.06.15-4.86-2.93h0l-2.39.08h-.84Z" style="fill:#263238"></path><path d="M281.41,303.86l-3.75-33.69s4-2.74,6.14-2.71a20.81,20.81,0,0,1,4.29.62l4.3,55.2-7.76,1.49Z" style="fill:#ffbf9d"></path><path d="M281.41,303.86s0,.12.08.36l.19,1.09c.17,1,.4,2.38.7,4.16.58,3.65,1.41,8.86,2.44,15.27l-.23-.16,7.76-1.51-.18.23c-.8-10.18-1.77-22.4-2.81-35.55-.53-6.87-1-13.48-1.52-19.65l.19.22a21.32,21.32,0,0,0-2.81-.52c-.47-.05-.93-.09-1.39-.1a4.5,4.5,0,0,0-1.3.23,21.4,21.4,0,0,0-4.74,2.43l.1-.21c1.08,10.05,2,18.46,2.62,24.4.29,2.93.53,5.25.7,6.87.07.77.12,1.37.16,1.81,0,.19,0,.34,0,.47v.16s0-.05,0-.16,0-.27-.07-.46c-.06-.44-.14-1-.24-1.81-.19-1.61-.47-3.92-.82-6.85-.68-5.93-1.65-14.34-2.8-24.38l0-.14.11-.07a21.2,21.2,0,0,1,4.85-2.52,5.31,5.31,0,0,1,1.46-.25c.47,0,1,0,1.43.1a22.8,22.8,0,0,1,2.89.52l.17,0v.18c.48,6.17,1,12.78,1.54,19.65,1,13.15,1.95,25.37,2.73,35.56v.19l-.19,0L284.66,325l-.19,0,0-.2c-1-6.42-1.73-11.65-2.27-15.3-.26-1.79-.46-3.19-.6-4.18-.05-.46-.1-.82-.14-1.09A2.07,2.07,0,0,1,281.41,303.86Z" style="fill:#263238"></path><path d="M289.71,267.43l-4.48,45,3.38,9.81,4.16.35s5.9-47,5-53.7Z" style="fill:#ffbf9d"></path><path d="M289.71,267.43a2.86,2.86,0,0,1,.51.07l1.54.24,6,1,.1,0v.09a64.37,64.37,0,0,1-.22,9.4c-.24,3.65-.61,7.78-1.05,12.3-.88,9-2.07,19.6-3.45,30.87l-.15,1.19,0,.25-.25,0-4.16-.35h-.17l-.06-.16c-1.16-3.39-2.29-6.68-3.37-9.81l0-.06v-.05c1.34-13,2.51-24.25,3.34-32.31.42-4,.76-7.13,1-9.35.12-1.05.21-1.88.28-2.48l.08-.63,0-.2a1.1,1.1,0,0,1,0,.24c0,.17,0,.39-.05.66,0,.62-.12,1.46-.22,2.55-.2,2.23-.5,5.42-.87,9.41-.77,8-1.84,19.23-3.08,32.16v-.11l3.38,9.81-.22-.17,4.16.35-.28.22.15-1.19c1.38-11.26,2.6-21.82,3.53-30.85.46-4.51.85-8.63,1.13-12.28a66.79,66.79,0,0,0,.32-9.33l.11.11-5.93-1.15-1.56-.31Z" style="fill:#263238"></path><polygon points="311.41 268.56 298.45 330.97 307.72 332.18 320.58 274.54 318.27 269.72 311.41 268.56" style="fill:#ffbf9d"></polygon><path d="M311.41,268.56l.44.05,1.31.2,5.13.8h0l0,.05,2.34,4.81,0,0v.05c-2.77,12.56-7.44,33.67-12.75,57.67l-.05.23-.24,0-.85-.11-8.41-1.1-.28,0,.06-.27c3.7-17.61,7-33.23,9.35-44.47,1.18-5.56,2.14-10,2.81-13.16.33-1.52.58-2.7.77-3.53.08-.38.15-.68.2-.91a2.81,2.81,0,0,1,.08-.29,1.51,1.51,0,0,1-.05.33c-.05.24-.1.55-.18.95-.17.85-.4,2.05-.71,3.6-.63,3.14-1.54,7.65-2.67,13.24-2.3,11.22-5.5,26.78-9.1,44.34l-.22-.31,8.42,1.1.85.11-.29.2c5.4-24,10.15-45.06,13-57.61v.09c-.86-1.81-1.62-3.43-2.28-4.83l.08.06-5-.92-1.33-.25Z" style="fill:#263238"></path><path d="M297.74,322.41l3-33.75s4.49-1.9,6.55-1.45a20.84,20.84,0,0,1,4.09,1.46l-6.72,55-7.9-.08Z" style="fill:#ffbf9d"></path><path d="M297.74,322.41a2.21,2.21,0,0,1,0,.38c0,.28,0,.64,0,1.1,0,1-.09,2.41-.15,4.22-.15,3.69-.37,9-.63,15.45l-.19-.2,7.9.05-.22.19c1.23-10.13,2.7-22.31,4.29-35.39.84-6.84,1.65-13.43,2.4-19.57l.14.25a22.18,22.18,0,0,0-2.65-1.06c-.45-.14-.9-.27-1.35-.37a4.47,4.47,0,0,0-1.32,0,21.23,21.23,0,0,0-5.12,1.45l.14-.19c-.94,10.06-1.72,18.49-2.27,24.43-.29,2.93-.51,5.25-.67,6.87-.09.77-.15,1.37-.2,1.81,0,.19,0,.34-.06.47a.61.61,0,0,1,0,.15s0-.05,0-.15,0-.28,0-.47c0-.44.07-1.05.12-1.82.13-1.62.32-3.94.55-6.88.51-5.95,1.23-14.38,2.08-24.45v-.14l.13-.05a21.12,21.12,0,0,1,5.25-1.51,4.86,4.86,0,0,1,1.47.05c.47.1.94.23,1.4.37a22.36,22.36,0,0,1,2.72,1.09l.16.07,0,.18c-.74,6.14-1.54,12.73-2.38,19.57-1.61,13.08-3.11,25.25-4.36,35.39l0,.19h-.19l-7.91-.1h-.2v-.19c.34-6.49.62-11.77.81-15.46.1-1.8.19-3.21.24-4.21,0-.46.06-.82.08-1.09A1.65,1.65,0,0,1,297.74,322.41Z" style="fill:#263238"></path><path d="M310.43,288.59c.06,0-.14.63-.87,1.35a5.07,5.07,0,0,1-3.62,1.37,5.6,5.6,0,0,1-2.1-.55c-.6-.28-1.1-.56-1.53-.77a13.42,13.42,0,0,1-1.41-.67,3,3,0,0,1,1.56.33,11.42,11.42,0,0,0,3.5,1.14,5.21,5.21,0,0,0,3.36-1.13C310.06,289.07,310.36,288.54,310.43,288.59Z" style="fill:#263238"></path><path d="M331.36,271,310.2,335.64s6.76,4.3,6.79,3.57,23.16-64.72,23.16-64.72l-4.91-3.67Z" style="fill:#ffbf9d"></path><path d="M331.36,271l.23,0,.73-.05,2.92-.15h0l0,0,4.94,3.63.07.05,0,.09c-4.36,12.23-12.84,36-22.59,63.37-.13.38-.25.74-.35,1.08l-.05.12,0,.07a1.33,1.33,0,0,0,0,.13.37.37,0,0,1-.36.25.62.62,0,0,1-.21,0,3.25,3.25,0,0,1-.6-.21c-.74-.33-1.42-.71-2.1-1.09-1.35-.77-2.65-1.57-3.9-2.36l-.17-.11.06-.19c6-18.25,11.34-34.42,15.18-46.06,1.92-5.77,3.46-10.41,4.54-13.64l1.24-3.65c.14-.4.24-.71.33-.94a1.41,1.41,0,0,1,.12-.31s0,.13-.09.35l-.3,1c-.28.88-.67,2.13-1.18,3.73-1,3.25-2.55,7.92-4.41,13.73-3.77,11.62-9,27.76-14.94,46l-.1-.3c1.24.79,2.54,1.58,3.88,2.35.67.37,1.35.75,2,1.06a3.15,3.15,0,0,0,.5.19h.08s0,.11,0,.12l0,.06s0,0,0,0h-.15v0l0-.08.05-.15c.12-.42.25-.81.38-1.18,9.68-27.41,18.41-51.17,22.84-63.29l.05.15-4.89-3.7h.06l-2.89.06h-.74A1,1,0,0,1,331.36,271Z" style="fill:#263238"></path><polygon points="341.79 297.82 315.94 335 323.91 340.46 347.83 305.04 348.25 301.78 341.79 297.82" style="fill:#ffbf9d"></polygon><path d="M341.79,297.82a3,3,0,0,1,.43.22l1.25.74,4.85,2.89.07.05v.08c-.12,1-.25,2.07-.4,3.26v0l0,0L324.12,340.6l-.14.22-.22-.15-.55-.38-7.41-5.08-.22-.15.15-.21,18.58-26.52,5.49-7.76c.62-.88,1.12-1.57,1.48-2.07l.38-.52.13-.16s0,.08-.12.21l-.37.56-1.46,2.16-5.4,7.89-18.29,26.5-.06-.36,7.41,5.08.55.38-.36.07,24-35.36,0,.07.44-3.25.06.13-4.71-3-1.24-.81C341.94,297.93,341.8,297.83,341.79,297.82Z" style="fill:#263238"></path><path d="M339.94,279c-.35.52-23.61,57.17-23.61,57.17l10.84-3.48,20.05-48.63-2.15-3.78Z" style="fill:#ffbf9d"></path><path d="M339.94,279a1.42,1.42,0,0,1,.33.06l1,.22,3.85.9h0l0,0,2.18,3.77,0,0,0,.06c-4.12,10.07-11.43,27.93-19.93,48.68l-.05.12-.11,0L322,334.66l-5.61,1.79-.53.17.21-.51c6.63-16,12.54-30.3,16.8-40.61l5.1-12.09c.6-1.4,1.08-2.49,1.41-3.26.16-.37.31-.66.4-.84s.14-.28.14-.27-.14.4-.44,1.15-.77,1.88-1.33,3.29c-1.18,2.89-2.87,7-4.95,12.16L316.57,336.3l-.32-.34,5.61-1.8,5.23-1.67-.16.15,20.17-48.59v.12c-.81-1.44-1.52-2.72-2.12-3.8l.06.05-3.78-1-1-.27Z" style="fill:#263238"></path><path d="M355.5,295.61c-.4.23-24.54,30.57-24.54,30.57l7.5,7.61,24.42-33.07Z" style="fill:#ffbf9d"></path><path d="M355.5,295.61a3,3,0,0,1,.5.3l1.46,1L363,300.6l.12.08-.09.13c-5.28,7.26-14.17,19.38-24.27,33.05l-.06.09-.18.24-.21-.21-7.5-7.62-.16-.16.14-.18c7-8.77,13.14-16.41,17.55-21.84,2.21-2.71,4-4.88,5.22-6.35.61-.74,1.1-1.3,1.43-1.68a4,4,0,0,1,.54-.54l-24.34,30.73,0-.34,7.51,7.61-.4,0,.06-.09c10.1-13.67,19.06-25.73,24.45-32.92l0,.21L357.43,297,356,296Z" style="fill:#263238"></path><path d="M314.8,320.9,329,290.14s4.86-.27,6.65.85a20,20,0,0,1,3.36,2.75L314.16,343.2l-7.42-2.74Z" style="fill:#ffbf9d"></path><path d="M314.8,320.9a2,2,0,0,1-.11.35l-.4,1-1.56,3.92c-1.38,3.43-3.37,8.32-5.81,14.34l-.11-.26,7.42,2.72-.27.11,16-31.88c3.1-6.15,6.08-12.08,8.87-17.6l0,.28a20.09,20.09,0,0,0-2.14-1.89q-.56-.43-1.14-.81a4.92,4.92,0,0,0-1.23-.48,20.78,20.78,0,0,0-5.31-.36l.2-.14-10.39,22.24c-1.26,2.66-2.26,4.76-3,6.23-.34.7-.61,1.24-.8,1.64-.09.17-.15.31-.21.42s-.08.14-.09.14l.05-.15.18-.44.74-1.66c.67-1.49,1.62-3.61,2.84-6.29,2.48-5.43,6-13.13,10.21-22.32l.06-.13H329a21.6,21.6,0,0,1,5.45.35,5.66,5.66,0,0,1,1.37.54c.41.26.8.54,1.18.83a21.07,21.07,0,0,1,2.2,1.94l.12.12-.08.16-8.85,17.62L314.35,343.3l-.09.18-.18-.07-7.4-2.77-.19-.07.07-.18,6-14.27,1.65-3.88c.19-.42.33-.76.45-1A3.19,3.19,0,0,1,314.8,320.9Z" style="fill:#263238"></path><path d="M338.18,293.34s-.35.55-1.28,1a5,5,0,0,1-3.87.07,5.46,5.46,0,0,1-1.79-1.23c-.47-.46-.85-.9-1.18-1.24-.65-.7-1.15-1-1.11-1.1s.62.17,1.36.83a11.26,11.26,0,0,0,2.91,2.26,5.23,5.23,0,0,0,3.55.07C337.66,293.67,338.12,293.28,338.18,293.34Z" style="fill:#263238"></path><g style="opacity:0.30000000000000004"><path d="M280.53,296l5.37,5.08L300,305.51s3.92,21.93,16.2,24.35l-1.66,6.2-38.9-10.38S280.94,295.62,280.53,296Z"></path></g><path d="M279.89,295.82c-.1,1-11.54,68.85-11.54,68.85l2.67,6.09,57.47,11.39,24.29-63-18.23-4.44s-6.31,19-21.92,14.5S296,306.13,296,306.13l-13.17-3.55Z" style="fill:#455a64"></path><path d="M273.54,355.24c23.3-4.27,44.74-6.68,68.28-9.24l6-13.89-71.55,8.51Z" style="fill:#fafafa"></path><polygon points="276.23 340.62 272.95 337.33 270.49 351.93 273.54 355.24 276.23 340.62" style="fill:#fafafa"></polygon><path d="M271,370.76c-.14,0,2.38-15.31,5.64-34.13s6-34.08,6.16-34.05-2.39,15.31-5.65,34.14S271.16,370.79,271,370.76Z" style="fill:#263238"></path><path d="M307.92,279.69a4.6,4.6,0,0,1-1.48.8,7.35,7.35,0,0,1-4,.64,8.39,8.39,0,0,1-3.59-2,9.17,9.17,0,0,1-1.28-1.07,4,4,0,0,1,1.5.77,9.83,9.83,0,0,0,3.46,1.76,8.34,8.34,0,0,0,3.83-.48A6.59,6.59,0,0,1,307.92,279.69Z" style="fill:#263238"></path><path d="M320.76,274.51a13.62,13.62,0,0,1-1.63.25,4.91,4.91,0,0,1-1.86,0,4,4,0,0,1-1.87-1.33,30.15,30.15,0,0,1-3.7-4.27,30.6,30.6,0,0,1,4.07,3.91,3.87,3.87,0,0,0,1.63,1.23,5.31,5.31,0,0,0,1.7.13A3.44,3.44,0,0,1,320.76,274.51Z" style="fill:#263238"></path><path d="M339.36,275c0,.06-.46.35-1.34.51a5.76,5.76,0,0,1-3.43-.52,5.65,5.65,0,0,1-2.49-2.42,2.47,2.47,0,0,1-.41-1.38c.08,0,.26.49.73,1.19a6.09,6.09,0,0,0,5.56,2.76A10.85,10.85,0,0,1,339.36,275Z" style="fill:#263238"></path><path d="M344.4,285a8.36,8.36,0,0,1-4.15-5.11c.14-.07.81,1.26,1.95,2.65S344.49,284.88,344.4,285Z" style="fill:#263238"></path><path d="M347.11,303.93s0,.14-.24.24a1.3,1.3,0,0,1-.93,0,2.54,2.54,0,0,1-1.09-.82c-.31-.38-.62-.79-1-1.23a15.37,15.37,0,0,1-2.18-3.34,15.26,15.26,0,0,1,2.59,3c.68.86,1.17,1.77,1.76,2A1.75,1.75,0,0,0,347.11,303.93Z" style="fill:#263238"></path><path d="M325.48,281.89a5.25,5.25,0,0,1-3.08.18,5.15,5.15,0,0,1-2.87-1.12c.06-.14,1.32.36,3,.61S325.46,281.74,325.48,281.89Z" style="fill:#263238"></path><path d="M287.15,268.18c.06,0,0,.66-.58,1.5a5.07,5.07,0,0,1-3.28,2.06,5.5,5.5,0,0,1-2.17-.12c-.64-.15-1.19-.33-1.65-.45-.93-.27-1.52-.3-1.52-.37a2.81,2.81,0,0,1,1.6,0,11.41,11.41,0,0,0,3.65.42,5.21,5.21,0,0,0,3.07-1.77C286.88,268.73,287.07,268.15,287.15,268.18Z" style="fill:#263238"></path><path d="M199.43,330a30,30,0,0,0-10-2.65c-6.86-.52-16,1.34-15.91,14.88.14,21.67,25.94,37.83,59.71,44s52.57-4,58.7-13.59c5.46-8.54,6.35-25.86-11.2-27C261.07,344.43,261.73,358,199.43,330Z" style="fill:#ffbf9d"></path><path d="M199.43,330s.25.09.72.29l2.1.88,8,3.45,5.86,2.34c2.13.87,4.46,1.81,7,2.7s5.21,2,8.13,2.84l4.49,1.44,4.78,1.28c6.54,1.61,13.95,3.08,21.87,2.14,4-.42,8-1.49,12.22-1.84,1.07,0,2.14-.18,3.22-.15s2.18,0,3.27.1a20.18,20.18,0,0,1,6.51,1.56,13.16,13.16,0,0,1,5.33,4.3,14.72,14.72,0,0,1,2.49,6.55,23.14,23.14,0,0,1-2.79,14,22.81,22.81,0,0,1-4.74,5.72l-.7.63-.74.58L285,380l-1.6,1a13.94,13.94,0,0,1-1.63,1A50.5,50.5,0,0,1,267.27,387l-1.91.38c-.63.12-1.28.17-1.92.27-1.28.13-2.55.38-3.83.43l-3.82.25-3.81,0c-1.26,0-2.52-.05-3.77-.11s-2.5-.1-3.74-.23c-2.47-.29-4.93-.45-7.34-.9a133.77,133.77,0,0,1-27.25-7A81.57,81.57,0,0,1,187.58,368c-6.25-5-11-11.15-13-17.7a27.42,27.42,0,0,1-1.18-9.61,16.1,16.1,0,0,1,2.41-8.25,11.15,11.15,0,0,1,6-4.4,18.79,18.79,0,0,1,6.27-.8,27.66,27.66,0,0,1,8.56,1.65,24.7,24.7,0,0,1,2.81,1.17l-.72-.28c-.47-.19-1.18-.47-2.12-.79a28.58,28.58,0,0,0-8.53-1.55,18.8,18.8,0,0,0-6.19.83,11,11,0,0,0-5.84,4.33,15.79,15.79,0,0,0-2.32,8.11,27,27,0,0,0,1.2,9.48c2,6.45,6.72,12.56,12.94,17.47a81.41,81.41,0,0,0,22.2,12.11,134.67,134.67,0,0,0,27.16,6.92c2.39.44,4.85.6,7.31.88,1.23.14,2.47.15,3.72.23s2.49.15,3.75.11l3.78,0,3.8-.25c1.27,0,2.53-.29,3.8-.43.63-.09,1.28-.14,1.91-.27l1.89-.37a50.25,50.25,0,0,0,14.32-5,16.19,16.19,0,0,0,1.61-.95l1.57-1,1.48-1.12.73-.56.68-.62A21.68,21.68,0,0,0,295,358a14.2,14.2,0,0,0-2.4-6.34,12.74,12.74,0,0,0-5.13-4.14c-4.07-1.8-8.58-1.78-12.76-1.49s-8.22,1.39-12.21,1.81a47.28,47.28,0,0,1-11.55-.15c-1.84-.27-3.65-.47-5.38-.89s-3.45-.68-5.08-1.17l-4.79-1.31-4.49-1.46c-2.92-.89-5.6-2-8.13-2.88s-4.86-1.86-7-2.74l-5.84-2.39-8-3.53-2.07-.93Z" style="fill:#263238"></path><path d="M163.66,352.71a11.86,11.86,0,0,1-1-17.61A15.3,15.3,0,0,1,173.35,331a33.26,33.26,0,0,1,11.4,2.32s36.25,17.16,55,19.36,32.82-1.89,38-2.84,17.83-1.58,20.67,6-1.1,14.74-7.57,19.12-39.45,12.59-79.37,1.23C178.85,366.92,163.66,352.71,163.66,352.71Z" style="fill:#a2675f"></path><path d="M275.51,362.05a7.88,7.88,0,0,1-1.17-.09c-2.48-.39-4.35-1.95-6-3.32-1.38-1.16-2.69-2.25-4.12-2.51-2.11-.39-4.13,1-6.46,2.51s-4.69,3.11-7.61,3.31c-4.48.3-7.9-2.74-10.91-5.43-2.67-2.38-5.18-4.64-8.08-4.56a13.42,13.42,0,0,0-4.87,1.55c-2.44,1.11-5.2,2.36-8.21,1.57-3.58-.93-5.43-4.14-7.06-7-1.37-2.4-2.68-4.66-4.73-5.24-1.45-.42-3.16.08-5,.6-2,.59-4.32,1.25-6.69.72-2.76-.62-4.7-2.62-6.42-4.38l-.11-.11c-1.35-1.39-2.93-2.88-4.64-3a2.49,2.49,0,0,0-2,.88.88.88,0,0,0-.24.82,1.87,1.87,0,0,1-3.55,1.15,4.58,4.58,0,0,1,.89-4.3,6.2,6.2,0,0,1,5.26-2.26c2.82.28,5,2.16,6.95,4.15l.1.11c1.43,1.46,2.9,3,4.58,3.34,1.44.33,3.09-.15,4.83-.65,2.13-.62,4.55-1.32,7-.61,3.51,1,5.33,4.16,6.94,7,1.39,2.41,2.7,4.68,4.77,5.22,1.74.46,3.58-.38,5.72-1.36a16.4,16.4,0,0,1,6.32-1.88c4.35-.14,7.7,2.87,10.65,5.5,2.71,2.42,5.28,4.72,8.18,4.5,2-.14,3.82-1.38,5.81-2.7,2.63-1.75,5.61-3.73,9.19-3.07,2.39.44,4.22,2,5.83,3.3,1.41,1.18,2.74,2.28,4.2,2.51,2,.31,4.07-1.07,6.23-2.53,2.46-1.66,5.25-3.53,8.58-3.22a1.86,1.86,0,0,1-.36,3.71c-2-.2-4,1.16-6.14,2.59S278.46,362.05,275.51,362.05Z" style="fill:#FF1694"></path><path d="M210.69,343.21a7.41,7.41,0,0,0-6.28-3c0-.07.39-.24,1.08-.29a5.47,5.47,0,0,1,2.65.52,5.41,5.41,0,0,1,2.09,1.72C210.63,342.77,210.75,343.18,210.69,343.21Z" style="fill:#fff"></path><path d="M232.66,349c0,.16-1.51,0-3.29.39s-3.11,1.08-3.19,1a7.19,7.19,0,0,1,6.48-1.34Z" style="fill:#fff"></path><path d="M236.22,350.56c-.06.13-.45.06-.87-.15s-.71-.49-.65-.62.46-.06.88.15S236.29,350.43,236.22,350.56Z" style="fill:#fff"></path><path d="M265.21,354.17a19.67,19.67,0,0,0-4-.12,20.92,20.92,0,0,0-3.8,1.16,6,6,0,0,1,3.73-1.67A5.88,5.88,0,0,1,265.21,354.17Z" style="fill:#fff"></path><path d="M289.87,353.21c0,.15-1.58.22-3.41.78s-3.18,1.36-3.27,1.23a6.34,6.34,0,0,1,3.12-1.73A6.25,6.25,0,0,1,289.87,353.21Z" style="fill:#fff"></path><path d="M187.46,335.24a7.42,7.42,0,0,0-8,.15c0-.05.27-.45,1-.88a5.87,5.87,0,0,1,3-.89,6,6,0,0,1,3,.77C187.18,334.8,187.5,335.19,187.46,335.24Z" style="fill:#fff"></path><path d="M190.8,338.37c-.1.11-.68-.29-1.29-.89s-1-1.16-.94-1.27.68.3,1.3.9S190.9,338.27,190.8,338.37Z" style="fill:#fff"></path><path d="M188.24,346.82a37.47,37.47,0,0,0-12.3-2.68c-7.67-.3-17.23,1.93-17.13,14.93.16,21.67,29.47,37.84,67.85,44s59.75-4,66.71-13.59c6.21-8.55,7.22-25.87-12.73-27C258.34,361.25,259.09,374.86,188.24,346.82Z" style="fill:#ffbf9d"></path><path d="M188.24,346.82l.8.28,2.34.87,9,3.4,6.55,2.31c2.39.85,5,1.79,7.82,2.66l4.37,1.41,2.3.73,2.39.67,5,1.41c1.71.47,3.49.85,5.3,1.29.9.21,1.82.44,2.75.64l2.84.52,2.91.54c1,.14,2,.25,3,.38a62,62,0,0,0,12.63.4c4.36-.28,8.81-1.24,13.47-1.77,1.16-.16,2.34-.22,3.53-.28.6,0,1.19-.08,1.79-.07l1.8,0a28.49,28.49,0,0,1,7.3.85,16.94,16.94,0,0,1,6.75,3.35,13.11,13.11,0,0,1,4.13,6.48c1.4,5.1.24,10.74-2.52,15.39a23.41,23.41,0,0,1-2.46,3.26L290.54,393c-.49.49-1.06.88-1.58,1.33l-.8.65c-.28.21-.57.39-.85.59l-1.72,1.16-1.81,1c-.61.34-1.21.69-1.85,1a62.66,62.66,0,0,1-16.1,5.06A90.65,90.65,0,0,1,249,405.21c-2.78.08-5.53-.15-8.26-.25-1.37-.08-2.72-.24-4.07-.35s-2.7-.21-4-.43a174.56,174.56,0,0,1-30.28-6.48,103.59,103.59,0,0,1-25.5-11.55,53.78,53.78,0,0,1-9.83-8.08,35.85,35.85,0,0,1-3.75-4.69,27.93,27.93,0,0,1-2.73-5.06,25.72,25.72,0,0,1-1.55-5.27,24.18,24.18,0,0,1-.31-5.2c0-.42,0-.84.07-1.26l.18-1.23a18,18,0,0,1,.55-2.36,12.39,12.39,0,0,1,2.2-4.07,4.53,4.53,0,0,1,.74-.83c.27-.25.53-.52.8-.75a13.37,13.37,0,0,1,1.77-1.19,15,15,0,0,1,3.71-1.47,25.23,25.23,0,0,1,6.92-.66,35.47,35.47,0,0,1,9.46,1.64,28.39,28.39,0,0,1,3.15,1.15l-.81-.28c-.53-.18-1.32-.46-2.37-.77a36.61,36.61,0,0,0-9.44-1.54,25.63,25.63,0,0,0-6.85.7,14.41,14.41,0,0,0-3.64,1.47,11.87,11.87,0,0,0-1.72,1.17c-.27.23-.51.48-.77.73a4.69,4.69,0,0,0-.73.81,12.26,12.26,0,0,0-2.12,4,16.1,16.1,0,0,0-.53,2.33c-.06.4-.12.8-.17,1.21s0,.82-.07,1.24a24.14,24.14,0,0,0,.32,5.12,25.21,25.21,0,0,0,1.55,5.19,27.6,27.6,0,0,0,2.71,5,36.54,36.54,0,0,0,3.73,4.63,53.69,53.69,0,0,0,9.76,8,103.88,103.88,0,0,0,25.41,11.45,175.51,175.51,0,0,0,30.2,6.44c1.32.21,2.67.27,4,.42s2.7.27,4.06.35c2.72.09,5.47.32,8.23.24a90.54,90.54,0,0,0,16.74-1.41,62.11,62.11,0,0,0,16-5,19.78,19.78,0,0,0,1.83-.95l1.79-1,1.69-1.15c.28-.19.57-.37.84-.57l.79-.64c.51-.44,1.08-.83,1.55-1.31l1.43-1.41A23.12,23.12,0,0,0,294,388c2.69-4.53,3.82-10.06,2.47-15a12.58,12.58,0,0,0-4-6.25,16.38,16.38,0,0,0-6.56-3.25,27.31,27.31,0,0,0-7.17-.85l-1.79,0c-.6,0-1.19.05-1.78.08-1.18.05-2.35.11-3.5.27-4.63.51-9.09,1.47-13.49,1.74a62,62,0,0,1-12.71-.43c-1-.13-2-.25-3-.39l-2.92-.55-2.85-.53c-.93-.2-1.85-.44-2.76-.65-1.81-.45-3.59-.84-5.3-1.31l-5-1.43-2.39-.68-2.3-.74-4.37-1.43c-2.83-.88-5.42-1.84-7.81-2.7l-6.54-2.36-9-3.49-2.33-.92Z" style="fill:#263238"></path><path d="M206.39,387.18c-1,1.23-2,2.55-1.85,4.2a2.24,2.24,0,0,0,2,2.15c1.44.1,2.37-1.42,2.82-2.76a4.73,4.73,0,0,0,.22-1.12C209.94,384.72,207.56,386.17,206.39,387.18Z" style="fill:#fff"></path><path d="M220.23,377.38c-1,1.22-2,2.55-1.86,4.19a2.25,2.25,0,0,0,2,2.15c1.44.11,2.37-1.41,2.81-2.76a4.66,4.66,0,0,0,.23-1.11C223.78,374.92,221.4,376.36,220.23,377.38Z" style="fill:#fff"></path><path d="M183.82,376c-1,1.22-2,2.55-1.86,4.19a2.24,2.24,0,0,0,2,2.15c1.44.11,2.37-1.41,2.82-2.76a4.75,4.75,0,0,0,.22-1.11C187.36,373.58,185,375,183.82,376Z" style="fill:#fff"></path><path d="M252.49,391c-.53,1.48-1.06,3.06-.4,4.57a2.24,2.24,0,0,0,2.55,1.4c1.4-.37,1.79-2.11,1.77-3.53a4.2,4.2,0,0,0-.15-1.12C255,387.53,253.26,389.67,252.49,391Z" style="fill:#fff"></path><path d="M225.19,391c-.53,1.48-1.07,3.06-.4,4.57a2.24,2.24,0,0,0,2.55,1.4c1.4-.37,1.79-2.11,1.77-3.53a4.26,4.26,0,0,0-.15-1.12C227.74,387.5,226,389.64,225.19,391Z" style="fill:#fff"></path><path d="M238.37,386.27c-.53,1.48-1.06,3.06-.4,4.57a2.25,2.25,0,0,0,2.56,1.4c1.4-.37,1.78-2.11,1.77-3.53a5.21,5.21,0,0,0-.15-1.12C240.92,382.79,239.14,384.93,238.37,386.27Z" style="fill:#fff"></path><path d="M199,378.13c-1.22,1-2.51,2-2.74,3.67a2.24,2.24,0,0,0,1.44,2.53c1.38.43,2.62-.85,3.36-2.06a5.07,5.07,0,0,0,.46-1C203.05,376.51,200.41,377.39,199,378.13Z" style="fill:#fff"></path><path d="M187,349a7.41,7.41,0,0,1-1.25-.37c-.79-.27-1.93-.65-3.36-1.06a24.27,24.27,0,0,0-11.39-.81,14.11,14.11,0,0,0-5.72,2.53,11.86,11.86,0,0,0-3.28,3.9,12,12,0,0,0-1.19,4.59s0-.12,0-.34a5.87,5.87,0,0,1,0-1,9.71,9.71,0,0,1,.92-3.44,11.77,11.77,0,0,1,3.32-4.12,14.08,14.08,0,0,1,5.9-2.66,19.75,19.75,0,0,1,6.47-.19,29.4,29.4,0,0,1,5.14,1.16c1.42.45,2.55.9,3.32,1.22A6.09,6.09,0,0,1,187,349Z" style="fill:#fff"></path><path d="M213.79,359a3.44,3.44,0,0,1-.95-.22c-.6-.17-1.47-.44-2.54-.79-2.14-.69-5.08-1.68-8.29-2.89s-6.07-2.42-8.1-3.39c-1-.48-1.84-.88-2.39-1.18s-.85-.48-.83-.52,1.3.5,3.37,1.37,4.93,2,8.13,3.24l8.23,3,2.49.94A3.35,3.35,0,0,1,213.79,359Z" style="fill:#fff"></path><path d="M221.51,361.83a6.86,6.86,0,0,1-2.18-.58,7.3,7.3,0,0,1-2.1-.79,3.94,3.94,0,0,1,2.26.29A4.13,4.13,0,0,1,221.51,361.83Z" style="fill:#fff"></path><path d="M293.65,372.47s-.43-.7-1.38-1.81a15.22,15.22,0,0,0-4.93-3.67,22.54,22.54,0,0,0-8.88-2.1,58,58,0,0,0-11.23,1,85.65,85.65,0,0,1-11.31,1.29,64.87,64.87,0,0,1-9.28-.34,60.09,60.09,0,0,1-6.18-1c-.72-.15-1.28-.3-1.66-.4a2.19,2.19,0,0,1-.56-.18,2.37,2.37,0,0,1,.59.08l1.67.3c1.45.26,3.55.6,6.17.85a67.35,67.35,0,0,0,9.24.23,89.25,89.25,0,0,0,11.23-1.33,57.09,57.09,0,0,1,11.34-1,22.68,22.68,0,0,1,9,2.24,14.78,14.78,0,0,1,4.92,3.87,11.43,11.43,0,0,1,1,1.42A1.94,1.94,0,0,1,293.65,372.47Z" style="fill:#fff"></path></g><g id="freepik--Label--inject-4"><polygon points="130.24 77.76 146.96 88.42 164.7 79.58 173 97.58 192.71 99.73 189.95 119.37 205.37 131.83 192.44 146.86 198.67 165.68 179.66 171.33 174.73 190.53 155.69 185.01 141.16 198.5 128.12 183.56 108.61 187.05 105.72 167.43 87.41 159.82 95.59 141.76 84.31 125.45 100.95 114.68 100.27 94.86 120.1 94.8 130.24 77.76" style="fill:#FF1694"></polygon><path d="M141.15,198.53v0l-13-14.92-19.52,3.49v0l-2.88-19.6-18.32-7.62v0l8.17-18.05L84.27,125.45l0,0,16.63-10.77-.67-19.82h0l19.81-.07,10.15-17h0L147,88.39l17.75-8.85v0l8.29,18,19.72,2.15v0L190,119.36l15.42,12.47v0l-12.93,15,6.24,18.84h0l-19,5.65-4.93,19.21h0l-19-5.52Zm-13-15h0l13,14.92L155.68,185h0l19,5.51,4.93-19.19h0l19-5.65-6.22-18.81h0l12.91-15-15.41-12.45v0l2.75-19.61L173,97.61v0l-8.28-18L147,88.45h0L130.25,77.8l-10.14,17h0l-19.8.07.67,19.8h0L84.34,125.46l11.28,16.29v0l-8.16,18,18.29,7.62h0L108.63,187Z" style="fill:#263238"></path></g><g id="freepik--text-3--inject-4"><path d="M403.19,284.31l31.26-5.42-.33,14.51-56.34,9.78.29-11.55,29.3-32.47c7.24-8.15,9.11-12.53,8.26-17.42s-5.15-7.54-12.37-6.28A20.9,20.9,0,0,0,388.76,246l-13-6.39c4.53-9.22,14.75-16.58,27.61-18.81,15.74-2.73,27.51,3.88,29.52,15.46,1.53,8.83-1.22,17-12.54,29.34Z" style="fill:#FF1694"></path><path d="M478.05,256.31,499,282.14l-17.54,3.05L469,269.27l-13.43,20.4L436.67,293l23.5-34.31-20-25.21,17.23-3,11.95,15.23,13-19.57,18.28-3.17Z" style="fill:#FF1694"></path><path d="M536,199.06l-2,77-17.22,3,1.6-62.69-14.88,2.58.37-14.3Z" style="fill:#FF1694"></path><g style="opacity:0.30000000000000004"><path d="M403.19,284.31l31.26-5.42-.33,14.51-56.34,9.78.29-11.55,29.3-32.47c7.24-8.15,9.11-12.53,8.26-17.42s-5.15-7.54-12.37-6.28A20.9,20.9,0,0,0,388.76,246l-13-6.39c4.53-9.22,14.75-16.58,27.61-18.81,15.74-2.73,27.51,3.88,29.52,15.46,1.53,8.83-1.22,17-12.54,29.34Z"></path><path d="M478.05,256.31,499,282.14l-17.54,3.05L469,269.27l-13.43,20.4L436.67,293l23.5-34.31-20-25.21,17.23-3,11.95,15.23,13-19.57,18.28-3.17Z"></path><path d="M536,199.06l-2,77-17.22,3,1.6-62.69-14.88,2.58.37-14.3Z"></path></g><path d="M398.79,285.05,430,279.63l-.32,14.51-56.35,9.78.3-11.55L403,259.91c7.23-8.16,9.1-12.54,8.25-17.43s-5.14-7.53-12.37-6.28a20.91,20.91,0,0,0-14.49,10.51l-13-6.39c4.53-9.22,14.75-16.58,27.61-18.81,15.73-2.73,27.5,3.88,29.51,15.47,1.54,8.82-1.21,17-12.53,29.33Z" style="fill:#FF1694"></path><path d="M473.65,257.06l20.91,25.82L477,285.93,464.62,270l-13.43,20.4-18.93,3.29,23.51-34.31-20-25.21,17.22-3,11.95,15.23,13-19.57,18.29-3.17Z" style="fill:#FF1694"></path><path d="M531.6,199.8l-2,77-17.22,3,1.6-62.69-14.88,2.58.36-14.3Z" style="fill:#FF1694"></path><path d="M532,374c0,.14-27.54,5.55-61.57,12.09s-61.64,11.72-61.67,11.58,27.53-5.55,61.57-12.09S531.93,373.89,532,374Z" style="fill:#263238"></path><path d="M540.33,194.65c0,.14-20,3.41-44.7,7.3s-44.77,6.92-44.79,6.78,20-3.41,44.71-7.3S540.31,194.51,540.33,194.65Z" style="fill:#263238"></path><path d="M527.58,189.22c0,.14-9.91,1.67-22.17,3.41s-22.21,3-22.23,2.9,9.9-1.67,22.16-3.41S527.56,189.07,527.58,189.22Z" style="fill:#263238"></path><path d="M379.05,373.53c-1.6-9.24,3.66-18.07,14.19-19.89,4.5-.79,8.37,0,10.72,2.36l-1.77,2.21c-2.14-1.86-5-2.52-8.73-1.88-8.56,1.49-12.83,8.89-11.5,16.53,1,5.51,5.18,8.59,12.05,7.39a12.44,12.44,0,0,0,8.35-4.88l2.07,1.67c-2,3-5.78,5.14-10.2,5.91C385.87,384.4,380.26,380.49,379.05,373.53Z" style="fill:#FF1694"></path><path d="M407.35,368.62c-1.6-9.24,3.66-18.07,14-19.87,8.32-1.44,13.89,2.48,15.1,9.43,1.6,9.25-3.7,18.08-14.07,19.88C414.09,379.5,408.56,375.58,407.35,368.62Zm26.17-9.8c-.95-5.47-5.17-8.55-12-7.37-8.36,1.46-12.63,8.86-11.3,16.5,1,5.51,5.18,8.59,12,7.41C430.59,373.9,434.86,366.5,433.52,358.82Z" style="fill:#FF1694"></path><path d="M473,340.05l-.75,29.11-2.85.5.59-23.09-11.3,21.26-1.41.25-10.83-17.79-.57,23.45-2.85.5.74-29.12,2.41-.42,11.75,19.5,12.45-23.7Z" style="fill:#FF1694"></path><path d="M505,354.5c1,5.7-3.15,9.53-10.51,10.81l-13.06,2.26.74-29.11,12-2.09c5.39-.94,9,.55,9.68,4.49a7.85,7.85,0,0,1-4.38,8.63A5.67,5.67,0,0,1,505,354.5Zm-2.93.55c-.55-3.18-3-3.95-7.31-3.21l-10,1.75-.25,10.93,9.85-1.71C499.89,361.83,502.73,359.11,502,355.05Zm-17-14.57-.28,10.57,9-1.56c4.82-.83,7.88-3.52,7.17-7.58-.48-2.77-3-3.66-6.86-3Z" style="fill:#FF1694"></path><path d="M509.78,350.84c-1.61-9.24,3.65-18.07,14-19.87,8.32-1.44,13.88,2.48,15.09,9.43,1.61,9.25-3.69,18.08-14.07,19.88C516.51,361.72,511,357.8,509.78,350.84ZM536,341c-1-5.47-5.17-8.54-12-7.37-8.36,1.46-12.62,8.86-11.29,16.5.95,5.51,5.17,8.59,12,7.41C533,356.13,537.28,348.72,536,341Z" style="fill:#FF1694"></path><path d="M375.21,347.62l2.09-6.43a19,19,0,0,0,11.48,1.55c4.19-.73,6.58-2.65,6.16-5.05-.92-5.28-16.78.39-18.6-10.12-1.18-6.78,4-12.2,13.14-13.78a21.91,21.91,0,0,1,11.89.85L399.51,321a16.25,16.25,0,0,0-9.39-1c-4.43.77-6.73,2.91-6.32,5.27.89,5.42,16.8-.25,18.56,9.88,1.18,6.83-4.08,12.26-13.27,13.86C383.72,349.93,378.35,349.21,375.21,347.62Z" style="fill:#FF1694"></path><path d="M407.91,333.84a19.07,19.07,0,0,1-.23-3.6l.47-19.11,7.67-1.33-.49,19a15.31,15.31,0,0,0,.2,2.83c.7,4,3.29,5.55,7.39,4.84,4.62-.81,6.86-3.82,7.06-10.21l.5-19L438,306l-.46,19.45c-.29,10.1-5,16.06-14.31,17.67C414.91,344.51,409.15,341,407.91,333.84Z" style="fill:#FF1694"></path><path d="M473.59,310.35c1.45,8.39-3.81,14.69-13.66,16.4L452.58,328l-.21,9.41-7.68,1.33.87-34.12,13.33-2.32C467.14,300.89,472.47,303.9,473.59,310.35Zm-7.62,2c-.55-3.2-3.07-4.32-6.94-3.65l-6,1-.32,11.85,6.45-1.12C464.22,319.6,466.73,316.73,466,312.35Z" style="fill:#FF1694"></path><path d="M487,303.75l-.17,7.41,15.31-2.66-.15,6.14-15.36,2.67-.18,7.89,18-3.12-.21,6.34-25.54,4.44.87-34.13,24.93-4.33-.21,6.35Z" style="fill:#FF1694"></path><path d="M532.08,313.11l7.51,9.18-8.06,1.4-6.78-8.34-6.5,1.13L518,326l-7.68,1.33.87-34.13,13.43-2.33c8.2-1.42,13.56,1.53,14.68,8C540.39,305.11,537.65,310.25,532.08,313.11Zm-.37-12.17c-.56-3.2-3.08-4.32-7-3.64l-6,1.05-.32,11.85,6.5-1.13C529.91,308.19,532.47,305.32,531.71,300.94Z" style="fill:#FF1694"></path></g><g id="freepik--text-2--inject-4"><path d="M292.59,160.88l.53-1a6.26,6.26,0,0,0,4.2,1.54c2.38,0,3.42-1,3.42-2.25,0-3.49-7.84-1.35-7.84-6.06,0-1.87,1.46-3.49,4.69-3.49a7.19,7.19,0,0,1,4,1.13l-.45,1.07a6.57,6.57,0,0,0-3.5-1.06c-2.32,0-3.36,1-3.36,2.31,0,3.5,7.84,1.39,7.84,6,0,1.88-1.49,3.48-4.75,3.48A6.88,6.88,0,0,1,292.59,160.88Z" style="fill:#263238"></path><path d="M315,154.06c0,2.71-2,4.35-5.2,4.35h-3.42v4H305V149.7h4.77C313,149.7,315,151.33,315,154.06Zm-1.35,0c0-2-1.34-3.2-3.89-3.2h-3.38v6.37h3.38C312.28,157.23,313.62,156.06,313.62,154.06Z" style="fill:#263238"></path><path d="M326.89,161.27v1.16h-9V149.7h8.73v1.16h-7.38v4.53h6.58v1.15h-6.58v4.73Z" style="fill:#263238"></path><path d="M328.86,156.06a6.38,6.38,0,0,1,6.67-6.47,6.19,6.19,0,0,1,4.66,1.85l-.86.86a5,5,0,0,0-3.76-1.51,5.28,5.28,0,1,0,0,10.55,5,5,0,0,0,3.76-1.53l.86.86a6.22,6.22,0,0,1-4.68,1.87A6.38,6.38,0,0,1,328.86,156.06Z" style="fill:#263238"></path><path d="M343.07,149.7h1.34v12.73h-1.34Z" style="fill:#263238"></path><path d="M356.55,159h-7.1l-1.53,3.4h-1.4l5.82-12.73h1.33l5.82,12.73h-1.42Zm-.5-1.09L353,151.1l-3.06,6.84Z" style="fill:#263238"></path><path d="M361.61,149.7H363v11.57h7.13v1.16h-8.47Z" style="fill:#263238"></path><path d="M375.82,156.06a6.86,6.86,0,1,1,6.85,6.55A6.51,6.51,0,0,1,375.82,156.06Zm11.33,0a4.48,4.48,0,1,0-4.48,4.48A4.34,4.34,0,0,0,387.15,156.06Z" style="fill:#263238"></path><path d="M394.41,151.68v3.87h6.15v2h-6.15v4.87h-2.36V149.7h9.29v2Z" style="fill:#263238"></path><path d="M406,151.68v3.87h6.15v2H406v4.87h-2.36V149.7h9.29v2Z" style="fill:#263238"></path><path d="M424.78,160.45v2h-9.55V149.7h9.29v2h-6.93V155h6.15v1.95h-6.15v3.51Z" style="fill:#263238"></path><path d="M435.75,162.43l-2.6-3.73a4.1,4.1,0,0,1-.49,0h-2.88v3.71h-2.36V149.7h5.24c3.34,0,5.42,1.71,5.42,4.53a4.08,4.08,0,0,1-2.71,4l2.93,4.18Zm-3.2-10.73h-2.77v5.07h2.77c2.07,0,3.14-.94,3.14-2.54S434.62,151.7,432.55,151.7Z" style="fill:#263238"></path></g><g id="freepik--text-1--inject-4"><path d="M159.75,109.2a1.88,1.88,0,1,1,3.66-.87l.94,4a1.88,1.88,0,1,1-3.66.87Zm2.17,3.77c.13.53.4.7.8.61s.57-.37.44-.91l-1-4.14c-.13-.53-.42-.7-.8-.61s-.57.37-.44.91Zm4-7.18,1.12-.27-1.89,13.21L164,119Zm.88,6.4a1.88,1.88,0,1,1,3.66-.86l.94,4a1.88,1.88,0,1,1-3.66.86ZM169,116c.13.54.41.71.8.62s.57-.38.44-.91l-1-4.14c-.12-.54-.42-.7-.8-.61s-.57.37-.44.9Z" style="fill:#263238"></path><path d="M126.5,122.14c-.93-3.92-2.55-4.65-4.73-4.13s-3.27,2-2.53,5.13l.66,2.8-6.47,1.54-.56-2.37c-1.65-7,.89-11.77,7.61-13.37s11.15,1.56,12.8,8.53l.27,1.12c1.1,4.67.3,8-2.67,10.1,3.78.68,5.92,3.59,7,8l.82,3.42c1.65,7-.89,11.78-7.61,13.37s-11.15-1.56-12.8-8.53l-.86-3.61,6.47-1.53,1,4c.74,3.11,2.39,4,4.57,3.45s3.29-1.89,2.38-5.75l-.82-3.42c-1-4.05-2.68-5.22-5.79-4.48l-2.3.55-1.48-6.23,2.68-.63c2.55-.61,3.84-2.09,3-5.58Z" style="fill:#263238"></path><path d="M137.33,119.31c-1.66-7,1.07-11.82,7.79-13.42s11.33,1.52,13,8.49L163.48,137c1.66,7-1.07,11.82-7.79,13.42s-11.34-1.52-13-8.49Zm12.32,21.46c.74,3.11,2.38,4,4.56,3.45s3.27-2,2.53-5.13l-5.58-23.52c-.74-3.11-2.39-4-4.57-3.45s-3.26,2-2.52,5.13Z" style="fill:#263238"></path><path d="M129.81,167.91c-.92-3.87,1.41-7.45,5.52-8.42s7.79,1.15,8.72,5-1.44,7.45-5.53,8.42S130.72,171.77,129.81,167.91ZM141,165.25a4.18,4.18,0,1,0-3.09,5.13A4.09,4.09,0,0,0,141,165.25Z" style="fill:#263238"></path><path d="M148.36,159.19l.81,3.43,6-1.42.57,2.41-6,1.43,1.12,4.74-3,.72-3.09-13,9.84-2.33.57,2.42Z" style="fill:#263238"></path><path d="M160.24,156.37l.81,3.44,6-1.43.57,2.41-6,1.43,1.12,4.74-3,.72-3.09-13,9.84-2.33.57,2.42Z" style="fill:#263238"></path></g></svg>